<mxfile host="Electron" modified="2024-11-22T20:17:12.583Z" agent="Mozilla/5.0 (Windows NT 10.0; Win64; x64) AppleWebKit/537.36 (KHTML, like Gecko) draw.io/21.7.5 Chrome/114.0.5735.289 Electron/25.8.1 Safari/537.36" etag="XMGqz2LqK-FS8tUxFWcS" version="21.7.5" type="device">
  <diagram name="Page-1" id="eUvmSeJycANfuTyCOVnu">
    <mxGraphModel dx="2268" dy="820" grid="1" gridSize="10" guides="1" tooltips="1" connect="1" arrows="1" fold="1" page="1" pageScale="1" pageWidth="850" pageHeight="1100" math="0" shadow="0">
      <root>
        <mxCell id="0" />
        <mxCell id="1" parent="0" />
        <mxCell id="WLh6ZahDHB6mBtM96sUv-53" style="edgeStyle=orthogonalEdgeStyle;rounded=0;orthogonalLoop=1;jettySize=auto;html=1;entryX=-0.026;entryY=0.647;entryDx=0;entryDy=0;entryPerimeter=0;" edge="1" parent="1" source="WLh6ZahDHB6mBtM96sUv-32" target="WLh6ZahDHB6mBtM96sUv-51">
          <mxGeometry relative="1" as="geometry" />
        </mxCell>
        <mxCell id="WLh6ZahDHB6mBtM96sUv-32" value="" style="rounded=1;whiteSpace=wrap;html=1;hachureGap=4;fontFamily=Architects Daughter;fontSource=https%3A%2F%2Ffonts.googleapis.com%2Fcss%3Ffamily%3DArchitects%2BDaughter;fontSize=20;" vertex="1" parent="1">
          <mxGeometry x="220" y="712" width="430" height="400" as="geometry" />
        </mxCell>
        <mxCell id="WLh6ZahDHB6mBtM96sUv-5" value="" style="rounded=1;whiteSpace=wrap;html=1;hachureGap=4;fontFamily=Architects Daughter;fontSource=https%3A%2F%2Ffonts.googleapis.com%2Fcss%3Ffamily%3DArchitects%2BDaughter;fontSize=20;" vertex="1" parent="1">
          <mxGeometry x="-48" y="351" width="550" height="132" as="geometry" />
        </mxCell>
        <mxCell id="WLh6ZahDHB6mBtM96sUv-4" value="" style="shape=image;verticalLabelPosition=bottom;labelBackgroundColor=default;verticalAlign=top;aspect=fixed;imageAspect=0;image=data:image/svg+xml,PHN2ZyB4bWxucz0iaHR0cDovL3d3dy53My5vcmcvMjAwMC9zdmciIHByZXNlcnZlQXNwZWN0UmF0aW89InhNaWRZTWlkIiB2aWV3Qm94PSItMC4wMDAwMjQwNTY2MDA1MjMxODEyNiAtMC4wMDAwNDgzODgwODY3MjUwMjYzNyAyNTYuMDAwMDMwNTE3NTc4MSAyNTUuOTg3MDE0NzcwNTA3OCIgaGVpZ2h0PSIyNTUuOTg3MDE0NzcwNTA3OCIgd2lkdGg9IjI1Ni4wMDAwMzA1MTc1NzgxIj48dGl0bGU+QWlyZmxvdzwvdGl0bGU+PGc+PHBhdGggZmlsbD0iIzAxN0NFRSIgZD0iTTQuMTI2NjcxNTEsMjU0Ljk3Mzc5NCBMMTI2LjY5NTQ4NSwxMjkuMzM0OTk5IEMxMjcuNDc2MzQ4LDEyOC41NjM0OTggMTI3LjU5MTc4MywxMjcuMzQzMTkgMTI2Ljk2OTQzNSwxMjYuNDM4OTUzIEMxMTkuNTE2MjUsMTE2LjAzMzE5MyAxMDUuNzYyMjA4LDExNC4yMjg2IDEwMC42NjU4NjQsMTA3LjIzNjM0NiBDODUuNTY4MTYyNiw4Ni41MjQ4MzkxIDgxLjczNzIwNzgsNzQuODAxNTA4NCA3NS4yNDkzNzA1LDc1LjUyNzY5MzkgQzc0Ljc5NjU5NzQsNzUuNTkyODM3IDc0LjM4MDI3MjUsNzUuODEyNTIxNCA3NC4wNzA5NDk2LDc2LjE0OTUxNzUgTDI5Ljc5NTM3MzYsMTIxLjUzODI4OCBDNC4zMjIzNTAyNCwxNDcuNjI4Nzg3IDAuNjYwOTgzNjIsMjA1LjEzNjU5NCAwLDI1My4yOTUzMDYgQy0wLjAwNDM3MzIxNzIzLDI1NC4yNzU2NDkgMC41ODc4NDc0MzUsMjU1LjE2MDE0NCAxLjQ5NTk1NTg5LDI1NS41Mjk1MTEgQzIuNDA0MDY0MzQsMjU1Ljg5ODg3OSAzLjQ0NTUzMTg1LDI1NS42Nzg4NzcgNC4xMjY2NzE1MSwyNTQuOTczNzk0IEw0LjEyNjY3MTUxLDI1NC45NzM3OTQgWiIvPjxwYXRoIGZpbGw9IiMwMEFENDYiIGQ9Ik0yNTQuOTczNzY5LDI1MS44NzMzNzMgTDEyOS4zMzQ5NzQsMTI5LjI5NTg2MyBDMTI4LjU2Mjg0MSwxMjguNTEyNjI4IDEyNy4zMzk3MDcsMTI4LjM5NzEgMTI2LjQzNDU4LDEyOS4wMjE5MTMgQzExNi4wMjg4MiwxMzYuNDc5NDQ3IDExNC4yMjQyMjcsMTUwLjIyOTE0IDEwNy4yMzE5NzMsMTU1LjMyNTQ4NCBDODYuNTIwNDY1OCwxNzAuNDIzMTg1IDc0Ljc5NzEzNTIsMTc0LjI1NDE0IDc1LjUyMzMyMDcsMTgwLjc0MTk3OCBDNzUuNTg5NDE4MSwxODEuMTkzMTk3IDc1LjgwOTAyNjUsMTgxLjYwNzg0MiA3Ni4xNDUxNDQyLDE4MS45MTYwNSBMMTIxLjUzMzkxNSwyMjYuMTkxNjI2IEMxNDcuNjI0NDEzLDI1MS42NjQ2NDkgMjA1LjEzMjIyLDI1NS4zMjYwMTYgMjUzLjI5MDkzMiwyNTUuOTg2OTc2IEMyNTQuMjY2MjE4LDI1NS45ODY5NzYgMjU1LjE0NDk2NCwyNTUuMzk4MTY2IDI1NS41MTQyMzksMjU0LjQ5NTQ5MiBDMjU1Ljg4MzUxNSwyNTMuNTkyODE5IDI1NS42Njk4OTgsMjUyLjU1NjQ0NiAyNTQuOTczNzY5LDI1MS44NzMzNzMgTDI1NC45NzM3NjksMjUxLjg3MzM3MyBaIi8+PHBhdGggZmlsbD0iIzA0RDY1OSIgZD0iTTEyMS41MzM5MTUsMjI2LjIwNDY3MSBDMTA3LjI3MTEwOSwyMTIuMjg5NzM5IDEwMC42NjE1MTYsMTg0Ljc2NDI2MyAxMjcuOTk1NjYyLDEyOC4wMDQzODMgQzgzLjU1OTE5NDIsMTQ3Ljg2MzYwMSA2Ny45ODc1MTUsMTczLjk2NzE0NSA3NS42NDUwNzY0LDE4MS40NDIwNzMgTDEyMS41MzM5MTUsMjI2LjIwNDY3MSBaIi8+PHBhdGggZmlsbD0iIzAwQzdENCIgZD0iTTI1MS44NjksMS4wMzA2MjM4NCBMMTI5LjMwNDUzNSwxMjYuNjY5NDE5IEMxMjguNTIxOTcxLDEyNy40NDAxMTIgMTI4LjQwNjQxNSwxMjguNjYxNzAyIDEyOS4wMzA1ODUsMTI5LjU2NTQ2NSBDMTM2LjQ4ODExOSwxMzkuOTcxMjI1IDE1MC4yMzM0NjMsMTQxLjc3NTgxOCAxNTUuMzM0MTU2LDE0OC43NjgwNzIgQzE3MC40MzE4NTcsMTY5LjQ3OTU3OSAxNzQuMjY3MTYxLDE4MS4yMDI5MSAxODAuNzUwNjUsMTgwLjQ3NjcyNCBDMTgxLjIwMzY0OCwxODAuNDEyMjc1IDE4MS42MjAxOTMsMTgwLjE5MjQ3NSAxODEuOTI5MDcsMTc5Ljg1NDkwMSBMMjI2LjIwNDY0NiwxMzQuNDY2MTMgQzI1MS42Nzc2NywxMDguMzc1NjMyIDI1NS4zMzkwMzYsNTAuODY3ODI0NCAyNTYsMi43MDkxMTI1OCBDMjU2LjAwMTgyOCwxLjcyODk1NjQ2IDI1NS40MDg1NzgsMC44NDU3Nzk1OTYgMjU0LjUwMDUxNiwwLjQ3NjgxOTQwOSBDMjUzLjU5MjQ1MywwLjEwNzg1OTIyMiAyNTIuNTUxMzI5LDAuMzI2OTY0NTIzIDI1MS44NjksMS4wMzA2MjM4NCBMMjUxLjg2OSwxLjAzMDYyMzg0IFoiLz48cGF0aCBmaWxsPSIjMTFFMUVFIiBkPSJNMjI2LjIyNjM4OSwxMzQuNDY2MTMgQzIxMi4zMTE0NTYsMTQ4LjcyODkzNiAxODQuNzg1OTgsMTU1LjMzODUyOSAxMjguMDIxNzUyLDEyOC4wMDQzODMgQzE0Ny44ODA5NywxNzIuNDQwODUxIDE3My45ODQ1MTQsMTg4LjAxMjUzIDE4MS40NTk0NDIsMTgwLjM1NDk2OSBMMjI2LjIyNjM4OSwxMzQuNDY2MTMgWiIvPjxwYXRoIGZpbGw9IiNFNDM5MjEiIGQ9Ik0xLjAxNzU1Mzc3LDQuMTMxMDQ0NzUgTDEyNi42NTYzNDksMTI2LjY5NTUxIEMxMjcuNDI3ODUsMTI3LjQ3NjM3MyAxMjguNjQ4MTU4LDEyNy41OTE4MDggMTI5LjU1MjM5NSwxMjYuOTY5NDYgQzEzOS45NTgxNTUsMTE5LjUxMTkyNiAxNDEuNzYyNzQ4LDEwNS43NjIyMzMgMTQ4Ljc1NTAwMiwxMDAuNjY1ODg5IEMxNjkuNDY2NTA5LDg1LjU2ODE4NzUgMTgxLjE4OTg0LDgxLjczNzIzMjYgMTgwLjQ2MzY1NCw3NS4yNDkzOTUzIEMxODAuMzk3NDgzLDc0Ljc5Njk1NzEgMTgwLjE3Nzk3LDc0LjM4MDk1NzMgMTc5Ljg0MTgzMSw3NC4wNzA5NzQ0IEwxMzQuNDUzMDYsMjkuNzk1Mzk4NSBDMTA4LjM2MjU2MSw0LjMyMjM3NTA3IDUwLjg1NDc1NDMsMC42NjEwMDg0NDkgMi42OTYwNDI1LDAgQzEuNzEzNzMxOTcsLTAuMDA2MjE0NzEyNzEgMC44MjY3NDQxMTcsMC41ODY2OTc1ODUgMC40NTY5NjYwNzIsMS40OTY3NzMwOCBDMC4wODcxODgwMjgzLDIuNDA2ODQ4NTggMC4zMDkyNTkyNjcsMy40NTAzODkxIDEuMDE3NTUzNzcsNC4xMzEwNDQ3NSBMMS4wMTc1NTM3Nyw0LjEzMTA0NDc1IFoiLz48cGF0aCBmaWxsPSIjRkY3NTU3IiBkPSJNMTM0LjQ3NDgwMiwyOS43OTk3NDY5IEMxNDguNzM3NjA4LDQzLjcxNDY3OTQgMTU1LjM0NzIwMSw3MS4yNDAxNTU0IDEyOC4wMTMwNTUsMTI4LjAwNDM4MyBDMTcyLjQ0OTUyMywxMDguMTQ1MTY2IDE4OC4wMjEyMDIsODIuMDM3MjczMyAxODAuMzYzNjQxLDc0LjU2NjY5MzkgTDEzNC40NzQ4MDIsMjkuNzk5NzQ2OSBaIi8+PHBhdGggZmlsbD0iIzBDQjZGRiIgZD0iTTI5Ljc5NTM3MzYsMTIxLjU0MjYzNiBDNDMuNzEwMzA2MiwxMDcuMjc5ODMxIDcxLjIzNTc4MjEsMTAwLjY3MDIzOCAxMjguMDAwMDEsMTI4LjAwNDM4MyBDMTA4LjE0MDc5Miw4My41Njc5MTU5IDgyLjAzNzI0ODUsNjcuOTk2MjM2NyA3NC41NjIzMjA3LDc1LjY1Mzc5OCBMMjkuNzk1MzczNiwxMjEuNTQyNjM2IFoiLz48Y2lyY2xlIHI9IjUuNDc5IiBjeT0iMTI3Ljk4MyIgY3g9IjEyOC4wMTciIGZpbGw9IiM0QTQ4NDgiLz48L2c+PC9zdmc+;rounded=1;" vertex="1" parent="1">
          <mxGeometry x="464" y="446.75" width="66" height="66" as="geometry" />
        </mxCell>
        <mxCell id="WLh6ZahDHB6mBtM96sUv-19" style="edgeStyle=orthogonalEdgeStyle;rounded=0;orthogonalLoop=1;jettySize=auto;html=1;entryX=0;entryY=0.5;entryDx=0;entryDy=0;" edge="1" parent="1" source="WLh6ZahDHB6mBtM96sUv-7" target="WLh6ZahDHB6mBtM96sUv-16">
          <mxGeometry relative="1" as="geometry" />
        </mxCell>
        <mxCell id="WLh6ZahDHB6mBtM96sUv-7" value="" style="shape=image;verticalLabelPosition=bottom;labelBackgroundColor=default;verticalAlign=top;aspect=fixed;imageAspect=0;image=data:image/png,iVBORw0KGgoAAAANSUhEUgAAAgAAAAIACAYAAAD0eNT6AAAgAElEQVR4XuydB5xVxfXHv/N2WaT33quKFex9ZQugYsHekxijiZpE00xMFBJbEmOK5q/GxMTYxYaidFyxgAVRVECpghTpvW25/8+58xAkyL67+967c9894+d9FuHOzJnv3Lf3d2fOnGPQogSUgBJQAkpACcSOgIndiHXASkAJKAEloASUACoA9CZQAkpACSgBJRBDAioAYjjpOmQloASUgBJQAioA9B5QAkpACSgBJRBDAioAYjjpOmQloASUgBJQAioA9B5QAkpACSgBJRBDAioAYjjpOmQloASUgBJQAioA9B5QAkpACSgBJRBDAioAYjjpOmQloASUgBJQAioA9B5QAkpACSgBJRBDAioAYjjpOmQloASUgBJQAioA9B5QAkpACSgBJRBDAioAYjjpOmQloASUgBJQAioA9B5QAkpACSgBJRBDAioAYjjpOmQloASUgBJQAioA9B5QAkpACSgBJRBDAioAYjjpOmQloASUgBJQAioA9B5QAkpACSgBJRBDAioAYjjpOmQloASUgBJQAioA9B5QAkpACSgBJRBDAioAYjjpOmQloASUgBJQAioA9B5QAkpACSgBJRBDAioAYjjpOmQloASUgBJQAioA9B5QAkpACSgBJRBDAioAYjjpOmQloASUgBJQAioA9B5QAkpACSgBJRBDAioAYjjpOmQloASUgBJQAioA9B5QAkpACSgBJRBDAioAYjjpOmQloASUgBJQAioA9B5QAhEn4BWSD+xDHnVJUJc8CiingHzqUEUdIB9DHpBHFQn/Pw+Doas/dI8FGDyq/H+tAirxqAQqSFBOBeXUYTuVbKeKbVSyDdhqyqiIODo1XwnEmoAKgFhPvw7eVQLeIOoCjdlGY/JohEdD/2NoADTAUB+oj0c9EtTDYx+gLoa6eBSA/6mD54uDnQLA+A//HQKgW1IAzPcFgKHKlwG7CgDjP+TLge0YtuP5D/9tGLZSxRYMW4DNeGwGNuGxCcNG/1PJBuqyHlhvRvn1tCgBJeAQARUADk2GmhIfAv5be10aA839TyXNSNAUj6bgf5r4AkA+Ho0wNAIa+g9/+xEBUC/5kbf8MIoIAxEAVgSIALCfjXhswLBBHv7JzzpgLYa1VLGWPNYAq/3PNtbrakIY06d9xp2ACoC43wE6/owS8M6lgNU0w9CaBK2ooiUJWuIlP/LwN74IaOY/+K0AaILx3+hz5fvp4bEVWOcLABECsAYvKQAMK5FPFStJ+D9X4LGc5qwxw9me0QnSxpVAjAnkyi+YGE+hDt0VAt5g6rONNlTSlgRtMbTDoy3QCmiNRysMLcH/yBu+LNNrke0FEQewEs8XAyuA5cAKDMvwWEoVy8hjGXX50rzkrzZoUQJKoJYEVADUEqBWjycBf49+C60ooANVdADaY2jv/yT54BcBYN/sZR9eS3AC4n8gKwVLfSEAS4EleCzxfyZYzHYWU48V6mMQHK7WUAIqAPQeUAIpEPBKaYDnP9w7A512+dkBQwc8XwTI8r1422vJHAE5nSC+BIvxWAz+ZxGw8KufhiVmrO+LoEUJKIG9EFABoLeHEtgDAf+BX0kHEnTFo4t/ZM7zj811wvgCoE3SAU/5hU9AnBC/xPOFwCIMC5JHGz+nigXksVgFQfiTpBa4R0AFgHtzohaFQMDrQwEdaYNHd6AbHj1I0D350O+S3MfXPfsQ5qYGXYpPgfgRfO6LgSrmYZgLyHHHeXzBl2aGOhfWgKtWyTECKgBybEJ1OKkT8AbRmO10xdATQy+gly8ADHI+Xpz3xBNfS/QJyAkEcSa0AgBm4/mfORSwwIzyjypqUQKxI6ACIHZTHu8Be4X+Mbze5PsP+32BfX0BYJf35dy9ltwnsD65TTAH+BTDp1Qwmyo+M2WszP3h6wiVgCWgAkDvhJwm4EGCQlqTz34Y/4G/f/Ijb/zi1CcR97TEl4BEKJRTBbOBmf7H8wXBLMpYbvAjI2pRAjlJQAVATk5rvAflibAt9YPu9MFwgP/x/Ae/CIDW6qkf7/tjL6OXEwYSf0BWBUQIfOJ/EsxgLCuMZE3QogRyiIAKgByazLgPxRtAczz2o5IDSXAQcGDybV8e+nqvx/0GCTZ+ediLGJBVgY+p4iPy+BjDLDPGj2CoRQlEnoD+Uoz8FMZ7AF4hDalLDzwOpIpDMRwC9Ek68emZ/HjfHukavawMSCCiGXh8SIIPMHzMNuaaMjamqxNtRwlkm4AKgGwT1/5qTcBPpJNPexIcjEc/PPpi/Ld9OZ+ve/q1JqwN7IWA+AwswvNXA6ZheJ8qplPBEk1opPdN1AioAIjajMXYXq+QpklnvsMA+RzsH91T7/0Y3xWhDl2OD4rz4HRgKh5TxXnQlPnJjrQoAecJqABwforibaA3lARv+aF2++JxBHA4+Ev9ck5fixJwg4DnbxF8ALyH4V1/deBYFpuheorAjQlSK/ZEQAWA3hdOEvBD8cr5/CqOwHAkVf4bfy8MjZw0WI1SAkLAY4O/KpDwVwTeSQqC2RqKWG8PFwmoAHBxVmJsk1dECxL+fv7ReByNoR/4iXbUoS/G90UEhy6Og5Kw6H0MU4ApVPGxmcCqCI5FTc5RAioAcnRiozYsbwDtqOAwEhyLxzEY/xhfi6iNQ+1VAnsgsAqPjzBMpoq3yGeqGeOnNtaiBEIloAIgVPzx7tw7lzw20IkKjsRwHHAcHr11mT/e90XOjl62BwyfAW/i8Sb5vEMjFpnhyGqBFiWQdQIqALKOXDv0DqMOTemWfNs/AcMx4Gfh0yN8envEgYAcJZyHx2QMr/urAmuZb6ZSHofB6xjdIaACwJ25yHlLvEHUZbufZlce+if6e/wgqXZ1fz/nZ18HuAcC8uYvKYun4DGJKl6ngLlmFCIQtCiBjBNQAZBxxNqBdy4FrKYnUEiCk3wHPxu0R+8/vT2UgM0xsCjpKPgaUEZz5pjhbFc4SiCTBPQXcCbpxrxtf6m/Md3J52TwP7LULw9+LUpACeyZgAiBycCrVPAq65mnWwN6q2SKgAqATJGNcbt+Ct5iuvqJeKvoj+EEoHOMkejQlUBQAgvxeJ0EE6mijPEs0NTEQRHq9dURUAFQHSH990AEvEI6UsDxeBQn3/q7IoJAixJQAkEJVAEL/NUAw3i284Yp44ugjej1SuCbCKgA0HsjLQS8ItqQ50fsK8H4D/8eQEFaGtdGlEC8CYgvwFw8xpNgHJW8YybwZbyR6OjTQUAFQDooxriNZIIeic1fCv5nf6B+jJHo0JVApghsBmYCY/EYSwUfaOKhTKGOR7sqAOIxz2kfpVfIPtRhPzwGYhiA5yfoaZr2jrRBJaAEvk7AYy2GD/AYg2E05X4Gwq2KSQkEJaACICgxvR6vP13IZwBVDPKP9GlmPr0rlED2CdgMhFNIMIoKxpiJfJ59I7THKBNQARDl2cuy7d4JtGIfPyXvKcmPOPjpPZTledDulMAuBCSGgDgKvuJ/tvKueZ0VSkgJpEJAf3mnQinm13jHUI9G9KGK04BTMRyg+/wxvyl0+K4R2IzHJ8DLJBjJBmaYyWxxzUi1xy0CKgDcmg/nrPFK6UQlg0j4D/+jgNbOGakGKQElsIPAcuBtqhhJHqPMWD/CoBYlsEcCKgD0xtgjAa+YJuTRD4/TqWIwxk/Wo/eL3i9KwH0CHh7zSPAShhep5H0znnXum60WZpuA/kLPNvEI9Of1pwd5nAH+51CgcQTMVhOVgBL4OoH1wAfACCoZYSYyVwEpgV0JqADQ++ErAt4AmuNxFFWcifE9/DVuv94fSiD6BBbhMYoEL2B424xhdfSHpCNIBwEVAOmgGPE2PFnaL/Gz9Z0FDAEOUie/iE+qmq8Evk5Aggh9BDwHPM845hibhVBLjAmoAIjx5MvQ/bf+Co4kwdnAQKBjzJHo8JVALhOQXAKjqeJZ8nlHVwNyeaqrH5sKgOoZ5ewVXrHv2DcE4z/8D9a3/pydah2YEtiVgKwGTMfjWVkRMOOZp3jiSUAFQAzn3TudRmyhH3AuMFhT9cbwJtAhKwFYCLwEDKce75sX2aBQ4kVABUC85htvEB2p5HQ8/+EvIkA9/GN2D+hwlcAuBOSkwPsYhpPHi2aUphuO092hAiAms+0dRh2acwAe5/tv/sZP16tFCSgBJSDugHJEcDiGp1jNJ2Yq5Yol9wmoAMj9OcYrogUJTsTjAgwnA61iMGwdohJQAsEIrMDjVQxPUsUkM4FVwarr1VEjoAIgajMW0F5vIF2p9J38Lkge76sbsAm9XAkogfgQ2JY8LvgkeTxrRvuJhrTkKAEVADk6sV4fCmjLgeRxEfgCQDL3aVECSkAJpEJAHvzPUsnjLONjM4PtqVTSa6JFQAVAtOYrJWu9U2nGVk4i4T/8+wMtUqqoFykBJaAEdhKQLYCJVPE4+/CaeZk1Cie3CKgAyK353OHlPwSPi4FDAF3yz7E51uEogSwSkC2BDzE8Rh7P6SmBLJLPQlcqALIAOVtdeCezL3lcAlyoXv7Zoq79KIEYELCnBJ6gkkfNq3wagxHHYogqAHJgmr1jqEcj+uJxGXA60C4HhqVDUAJKwC0CS4EXMfyXDUwzk9nilnlqTVACKgCCEnPsej+WfxVFwOXA8UATx0xUc5SAEsgdAuuAN4CHSTBBcwlEe2JVAER4/rwS2uP5sfzl4S+x/AsiPBw1XQkogWgQkBMBkkvgYQzPmXEsiYbZauXuBFQARPSe8BP5iJe/x6VA74gOQ81WAkogugQ+w/CInBLQhELRnEQVABGcN6+IPuTxbTzO00Q+EZxANVkJ5A6BhRieppJ/mwnMyJ1hxWMkKgAiNM/euRSwjr5UcQWGM4DWETJfTVUCSiA3CSzHYwQJ/kUTppnhGjQoKtOsAiAiM+UV0pA6nAhcAb7Tnzr7RWTu1EwlEAMC4hw4AfgX5UwyZWyMwZgjP0QVABGYQt/Tv4JBJPguHkdhqBcBs9VEJaAE4kTAYwuGt6nin+QzSk8IuD/5KgAcnyOviDYkOAuP72E4CMh33GQ1TwkogfgSqMDjIwz/oIrnzQS+jC8K90euAsDhOfL604F8zsPjSmB/h01V05SAElACuxKYieFBKnjaTGSxonGTgAoAN+cFr5jOJLgYj28DvRw1U81SAkpACXwTgdkY/k0Vj5nxLFRM7hFQAeDenMjDvztwGcYP7dvNQRPVJCWgBJRAKgTm4/Ff4L8aKyAVXNm9RgVAdnlX25s3gJ5U8R3ws/l1rraCXqAElIAScJuAvP0/RoKHzBjmuG1qvKxTAeDQfHtF9MbwXQwXAh0dMk1NUQJKQAnUhsAXeDyBxz/NBD6rTUNaN30EVACkj2WtWvIGsi+VfA+4AGhfq8a0shJQAkrAPQKSM+BJ8viHGa0phV2YHhUADsyCV8p+eFyNx/kY2jpgkpqgBJSAEkg/AY9lGJ7CcL8Zy6z0d6AtBiGgAiAIrQxc6xWzP4argfOBNhnoQptUAkpACbhEQGIDPIXH/WY8M10yLG62qAAIccaTb/7f14d/iJOgXSsBJRAGASsCDPfpSkAY+G2fKgBCYp/c85eHv+z565t/SPOg3SoBJRAaAREB4hNwn/oEhDMHKgBC4O57+ye4Co+LdM8/hAnQLpWAEnCDgPUJeJwqHtDTAdmfEhUAWWbun/MXb3/jn/NXb/8s89fulIAScI7AEjwe808HaJyArE6OCoAs4vYj/Mk5f7hUz/lnEbx2pQSUgOsEvgAe8eMEjGee68bmin0qALI0k35sf/gOxo/trxH+ssRdu1ECSiAyBBbi8W/gIc0dkJ05UwGQBc7JrH6XJbP6aWz/LDDXLpSAEogkgfnJLIL/1SyCmZ8/FQAZZuwV0YY8LsJDPP41q1+GeWvzSkAJRJ6AZBG8j0oeNxOQkwJaMkRABUCGwEqz3gCaU8V5wA+B/TPYlTatBJSAEsglAhIg6G8keNqMYXUuDcylsagAyNBseIU0JI8zMPwEQ98MdaPNKgEloARyk4DH+8CfqOBFU8bG3BxkuKNSAZAB/t65FLCWYuBnwPFAfga60SaVgBJQArlMoAJ4A/gjTRlvhrM9lwcbxthUAGSAulfKUXj8HI9BGOploAttUgkoASWQ+wQ8tmAYheEPZixv5/6AsztCFQBp5u0V0QfDjzH+3n+TNDevzSkBJaAE4kZgLR5PA3/R5EHpnXoVAGnk6Qf6SfB9PC4DWqexaW1KCSgBJRBnAssx/Jcq7tNAQem7DVQApImlV0J7DN9JnvXXQD9p4qrNKAEloASSBCRQ0IMYHjLjWKJUak9ABUDtGdrjfpV+Yp/rgN5paFKbUAJKQAkogf8l8Bke95DH43o8sPa3hwqAWjL0jqEeDTkN+DlweC2b0+pKQAkoASWwdwLvAX9gIyPNZLYorJoTUAFQc3Z+Ta+UY/H4FVACFNSyOa2uBJSAElACeyewHY+xeNxuJjBZYdWcgAqAmrPDO5l9yed64AL1+K8FSK2qBJSAEghGYB3wBBX8xbzKp8Gq6tU7CKgAqOG94A2iI+VcheEKoF0Nm9FqSkAJKAElUDMCS/H4F3V4wIxC0glrCUhABUBAYHK5dyrNKOdSqvghhh41aEKrKAEloASUQO0JzMHwN+rwqHmZNbVvLl4tqAAION9eHwpoxykk+CVwZMDqerkSUAJKQAmkl8A74g/AEkaZGRouOAhaFQBBaMnbf3/6kceNwOlA3YDV9XIloASUgBJIL4GtwEtUcqeZ6CcQ0pIiARUAKYKSy7yBdKWSa4FvAS0CVNVLlUDuEDAGGreA1l2gXiM7roptsH4VrFoKWzbkzlhrMxLhVL8xNG8LjVpA/m6HhLZuhHUrLLetm8DzatNb3OuuBB4mj3vNaBbEHUaq41cBkCIpr4gWJPwHvwiArilW08uUQG4RaNMVDjwBevWD9j12EQDbkwJgCaxeaoXA6iX256ol8REFjZpDx94gnFq0h5Yd7E/5+/8RAJusAJDPmmWwfBEsnAnL5sHWzbl132RnNPLgv4cqHjYTWJWdLqPdiwqAFObPO4w6NPeD/ch5fw32kwIzvSQHCchDrfRb0P9iaNsF8urseZCyAuALgOTDXwSA/PlrwmAJbM6hlYIGTaFLH+hbBAccB226QPN2UL8RmMTebwavygqkFV9YATDjLZg5BRbOgo3q1xbwmyRBgm5nNSPNVMoD1o3d5SoAUphyr4RD8fglhjN03z8FYHpJ7hGQh5k8/E/9nn27DVq2bNwpCL4mDJYlVwqWwMoIrhTIA77TfnBofzi0CHocCk1bBaWz83rZBpDVgPkfwYdl8N4YWDQTtmnAuxShbsPjBQx3mnF8kGKd2F6mAqCaqU+e978med6/Ft/s2N5jOvBcIHD0aXDpUOh1WPpGs0MU7BAEKxfD6mWwJrmFsGqx26JARNHRg+HY06HnYXavP51lzZfw8esw+SWYNgGEh5ZUCKxIxgf4u8YH2DsuFQB74eOdTiO2+uf9b9Dz/ql87/SanCQgD7pzfmLf/nc4/WVqoCIK5A1Ytg3kI6JA/l+EwY7/lwehXBdmad0ZTr4QBnwbOu6bOUvKt8Pi2TB5BJQ9CZ9/AlVVmesvd1qeg8fdbOFR8yY5tNeU3glSAbA3AVDCScBQoDC92LU1JRAhArK8LW//B50QjtHiLe8LgKVWEIgAEFEgb8jy/yu/SDoaZkkUdDsISi6H44dA227ZYSKOgm+NgFEPwpxpUKHb29WC9yjDMNSM47Vqr43pBSoAvmHivWK6Y7gBuBRoHNP7Q4etBKDkMisAsvWwS4W5HJsTESB+AzsEgAgC/+8WW4c6WTEQ8ZDOcnAhnHkdHFJoPfuzWTasgfdGwyv/gJlvw3b1C6gG/3rgEVkJMOOZl82pikpfKgD2MFPeAJpTyXcwXAd0jspkqp1KIO0ECvaBc38G5/8C9mmQ9ubT2qAvCpKrAisWWQGwdvkuoiD5d3JdTUrPvlYIHSMxwEIqm9dbf4Dn/2r9A3Q7oLqJWIjHPeTxkBnD6uoujtu/qwDYbcY9MBQxgAS3AEfH7YbQ8SqBrxFo2REuvQUGfTeaYL4SBV/sXBXYIQpklWDH6kF1oqBdDzj7eii6BBo0CZeF+D+MfwSeuQuW6ottCpMxhSqGMYExBjTa0i7AVADsLgBK6AX8HLgIqJ/CzaWXKIHcJdD7cPvWe9SpuTNGCbIjWwW+AJBVgaU7Vwpk5UD+Xk4m7BAFTVrCgCvgjGugVSc3OMiDXwSACIGwHSLdILI3KySq0uPAH8w4ZrtvbvYsVAGwC2t/6b8KedWRpf+O2ZsG7UkJOEogE8f/XByqLwqW2oe/iAARAGtX2J9yCkI8/mULwJVSVQnvjoJHfwefvuOKVS7bIemC7yHBP3UrYOc0qQDYVQCUMgjPX/o/yuU7WW1TAlkjMOhKuwUgIW3jVmQFQE4f5OdbEbB7KN+wechWxoh74KX7bBhmLdUReBvDMDOWUdVdGJd/VwGQnGmvPz1I8HMMl+jSf1xufx3nXgmI098FN1onwDqa+NLJu0WiBT4yFKbrSbcU5mczHo9SxR/MROamcH3OX6ICQLL8FdMkGenvx4Ajm3w5f+/pAF0n0K673f8vlpOwWpwkIG/+sgow4l5dBUhtghYBf5FIgWY861KrkrtXqQAQATCAk6nyA/6cmLtTrSNTAgEJSFIbWf7vVxKsoiydy5vpkjkgIqJtd5DIeRI3X0v6CegqQFCmr5FgmBnDq0Er5tr1sRcAXqn/xn8DHt/RgD+5dnvreGpF4ISz7QpA1wODNSMe6o8MgykvQbtuOwWABM5p0gradrXCQNLk1tWDNsHg7uFqWQV48k67ElC+rdbNxaCB9RgeAu42Y5EVgdiWWAsA7xjqUZ9LMf7ef4/Y3gU6cCWwOwFJYXv6NXDJzSDH4IIUSWUr+9KSyW7XIumDpS2JKLhDADRuYZPoSIZBWSlo1to9Z7sgYw/r2pcfsKJLTi1oqZ6A5/sA/J5NPGomE9uQivEWAKUclvT6Pw0JAKRFCSgBS6BhM7joJjjrR5CXH4zK5BetAJCY9dWVuvWsh32bLlYAtGgHjVva1QHZNhCh0KgFJBLVtRTvf3/jOctc0ghrSYWABAR6CcNvzVimplIhF6+J7UPPO4FW1OUHGH4AtM7FydUxKYEaE+i8v93/P+n8YE3I+fRXHoTHbq1Z+tpEHtRvbIVA6y52C6FFB7t1ICsFrTrbLYSwo/EFo5L5qz+aZAXAB7Hf1g7Cejnwd8r5P1PGyiAVc+Xa+AqAEk7BYyiGI3JlMnUcSiBtBA49OZkBMKBfrCSseepOeOFvsH1resyRI4j+VoGIgk7QppuNS9Csjf1IdD4JWVyvYXr6i2Irn8+wAmDS8ChaH6bNEkVpmBnHK2EaEVbfsRQAXn+6kMfPgG/rmf+wbj3t12kCJ19kVwA69g5m5sJZ9kH02lPB6gW62tiH/VcCoKPdPhAhsOPvfIHQFiSZURzKlwss97EPx2G06RyjZIb6D5X80Uzk83Q2HIW2YicAvEL2oYDL8LgRyFIy7yjcCmqjEkgSyK8DQ66HC38VfKldAtKIM9qHWV6KFpvFb+ErAdDR+g/sKgpkK0FWEoL6NEThxlABUJtZmkcVv6eS/5oy0rRsVRtzslc3fgKghEN9xz/DGer4l70bTXuKEAF5iIr3/2lXg5wGCFJkCVreRGVJOuwiRwybtt4pCnY4FYoQkDHKv4mzYYPG0f9VoAKgNnebh8cIP0zwOD6oTUNRqxsrAeAV0pR8rgZ+hKFt1CZL7VUCWSHQ41C7/H/smcG6q9huI9I9cQesd9CnKi/Prmg0TfoOyE9ZJZDPjpUD+bumraIXn0AFQLB7dferPZYBf6WC+00Za2vXWHRqx0sAFFOI8ZP9FEZnitRSJZBlAocPtA6A+wfMiSUpdh+/DUbeD5UVWTa6ht2Jj4AcO9whAOSkgQiCgwuh12HR8SFYPNuuvEyUrLdaakTAowzDUDOO2CRWiI0A8IpoQ4If4fF9DE1rdINoJSUQBwKl37IrABKcJ0iZ+yE8OhTefCFILbeulS0PCVk84Dtwzg32dEEUyqfvWgHwTiyd2dMzQx5rMdxHFX81E/gyPY263Up8BEApg5NBfw5ze0rUOiUQIoGCenDez+D8XwRfBp861joAzngrxAGkqeujB9tVkF790tRghpuRB78IABECWmpDYKq/CjCWkbVpJCp1YyEAvEI6ku+H+71Cj/1F5dZUO0MhII5y8vYvb8BBy4RH7UNoSQ5kWt33CCsAjjwlKIVwrh/7Hyu+xBdAS20IbAb+STl/NGV8UZuGolA35wWABwlKOQ+Pm4H9ozApaqMSCI3AvkcmH3yDgpmwfQs8czc89XvYsiFYXRevljgCIoQGXemidV+3aetGePqP8MxdsFWeX1pqSWCmhAhmLE8bqKplW05Xz30BUEx3DL8CJKl5gdOzocYpgbAJHHO6FQA9+wazZPlCeHQYjPk3eBJmPeJFog/KMcgLfmkdBF0u86fbt3/JB6AlHQS2A4/gcbsZz7x0NOhqGzktALzDqEMLLsXjJqC7q5OgdikBZwiccqUVAHI+PkiZ9Y5d/n93VJBabl97wHF2FaBfibt2VpTDxEfh8dthyRx37YyeZfMw3MYqHjFTKY+e+alZnNsC4GT2JY/fYLgQ2QrQogSUwDcTkPC6598I5/wk+PG3KS/Zt9DZOZRYrVFzmw3xzB9CQ0cPDi2bD0/eAeMehnJ5cdWSJgJVeDxBJb8zr/Jpmtp0rpmcFQDeuRSwFvFk+iXQ2TnyapAScI1Ah172jbf/xcEtG/0vKwBWLApe1+UafkyEW2D/o92zUjIvvjUCHvsdzI1VALtszcVC4A6a8pAZTk6qq9wVAEX0IeEH/TkvW3eL9qMEIk3gwBPsw65vUbBhbN1knf+G3wXiDJhLRQIDDf4BnHqVDR3sUlk6z/QwAkMAACAASURBVDr+jX8Etmx0ybJcsUWcWYZTxTAzAQdiW6cfa04KAG8QddnOFST8hD+d0o9NW1QCOUjgxHPs/n+XA4INbvGcZBS6x4LVi8rVPfvZuAjHDAaJk+BCkQe+PPhFAIgQ0JIpAouo4k4K+JcZxbZMdRJWu7kpAPTtP6z7SfuNKoFEHpx+DVz8a2jSKtgoPnrdLv9/MCFYvahcLeGCJTCQiAAJD+xCEadLWfp/9xWoyumTai7QfhqPoWY8M10wJp025JwA8D3/m/t7/3L0T/f+03m3aFu5S0DS5Er63zOuA0mtG6S8/qxdAVjwcZBa0bpWlv9LL7fbAUFDJKd7pBLs56X7QIL/rF2e7ta1vf8lIL4At7Oah3LtREDuCYAiepPHLXi+53/OjU+/nUogIwRk2V+W/2UbIGh56f/sCkCuP4zkwS95EkQIhCUC5OE/9mH78Neof0Hv1Jpe72H8EwHiC/BZTRtxsV5OPSC9c8ljrR/w5zd67t/F201tcpaAOP6JADjw+GAmbl5vz6A/dzfImfRcL2GKAH34h3l3iaPF72jKI2Y4lWEaks6+c0sADKQrFf65/8uBvHSC0raUQE4T6H+RFQByFDBI+XyGXf6fNDxIrWhfKyKg6BIouhja94S8/MyOR4TVF5/aVL+vPqFv/pml/U2tS37rh8njVjOanEm4kFsCoJjzJJOTxvwP5xuivUaUgIS9HfJjG/a2QZNgg5g23i7/f/xGsHpRv1rSBEuMgOPOgP2OhiYtMzOi9atg5mSY9CxMHQOrl2amH201FQIzk86AT6dycRSuyRkB4A2gHVX+sb+rgLpRgK82KgEnCDRvB5fcDKd8DxIBA2bKW6msACye7cRQsmqERE7seiAcewYcdRq075G+Y4LbNsOyBfDeaJj0DMz/CCTpj5YwCcgxwAdIcKcZQ04osdwRAEWcRsJ/+3fknE6Y96n2rQQCEJBz7hIASBIBBS3P/dmuAGxaF7Rm7lwvqwF9jrGfHn2h8342aJAJKKaEyPqVsHAmfPouzHob5LifOvu5dK9MpYqhZgIjXTKqprbkhADwimhBgp/gcS2GRjWFofWUQCwJHDHI7v/vd2Sw4W9YA4/9Fp7/G3gxP4suD/umraDT/tDzUOh+iD0p0KojyArLPg32zFbS98qy/srFsHoJzJsOn75jj1SukSN+OZBZMdhd5fbVHhsw3EsVfzITWOW2sdVblxsCoISTZG8GQ2H1Q9YrlIAS+BoBOdYmAiDo0ba50+zbv8Sj17KTgAQOkod+6y5WALTuDC06wD71v05JHv6rFoOkUvYFwFL7/5s3KE2XCXiUia+ZGcdrLpuZim2RFwBeKQ38N3/4GdAilUHrNUpACSQJ1K0P5/0Mzv3ZN7+lfhOsd162AkCWq7V8MwEJrNSg6f/ylRwKm9bG4/hkbt0f8ub/R1kJMGPZFOWhRV8AlHAoHrdgODPKE6G2K4FQCMhbv7z9yypA0DLm39YBUN5gtSiBOBHweIE8hpoxfBjlYUdaAHhDSfCmH/ZXAv9o2N8o34lqezgEJM2tCIDDBwTrX1LRPv0HeOxWEI91LUogXgRE9f6O43jIDCWyDjDRFgClfqa/3+D5IkAD/8TrC6ijTQeBY86wJwB69g3W2pov7fL/yPuC1dOrlUBuEKjE8JCIADOWRVEdUrQFQAmnJ5f/+0V1AtRuJRAaAWNg0JU2BkDLDsHMkCNqIgDeHRWsnl6tBHKFgMf7GIaZcbwY1SFFVgB4hTQln58AP9Kjf1G9/dTuUAnUbwwX3AhDrgfxXA9S3nze7v/LsTUtSiCOBORIIPyVCv5kylgbRQTRFQDFHA2+89/AKIJXm5VA6AQ67muX/0+WxJkBy8j77QrAmmUBK+rlSiCHCHiMBoaZ8UyJ4qgiKQC8QvKpw1V4/BpD2yiCV5uVQOgEDjrRCoBD+wczpWI7PHEHPHE7yJ+1KIG4EvBYhuFWynnAlCEJgyJVoikAiumcTPrz7UjRVmOVgEsETjjHngDoekAwq1Yssm//o/8VrJ5erQRyk8C/k0mCInceNpoCoJTT/Mh/Gvc/N79OOqrME5AUtqdfAxfeZEPYBikfvW73/z+YGKSWXqsEcpXAVD8y4Njo5QeInADwCmlIHW4A3wGwca7eUTouJZBRAk1awUU3weAfgESqC1LKnrQCYNGnQWrptUogVwmsB/5EOXebMiKVsjF6AmAAh1Dpx/3XyH+5+nXScWWeQLeD7P7/8WcH7+v5v9otgI1rgtfVGkogFwlENDJg9ARAKRcnl/975uJ9pGNSAlkh0LfI7v8feHyw7rZtgcd+Z6MASjRALUpACQiBOcltgMeihCNSAsAbQHMq+SWG64C6UQKttioBpwjI0T8RAB17BzNr6Ty7/D/+kWD19GolkNsEtuFxD3ncYcawOipDjZYAKOXY5Nt/SVQAq51KwDkCEvTnrB/B+TdCw6bBzJs23i7/f/xGsHp6tRLIfQLjkqsAb0VlqJERAB4YiriSBDcDAeOWRmU61E4lkAUCEvb34pth0HchkQjW4biH7QrAsgXB6unVSiD3CSymit8ygQcNeFEYbnQEQCmt8fysf9/XxD9RuLXURmcJ9Opnl/+PHhzcxOF/tAJgq2YADA5Pa+Q4AXGKuQ/jJwhaHoWxRkcAFFOI4RagMApg1UYl4CyBIwbZEwD7HRXMxC0b7fL/M3cFq6dXK4H4ECjD80MDl0VhyJEQAB4kKPHf/GUFoE0UwKqNSsBZAiWXWwHQtlswExfNsgJA4gBoUQJKYE8EvpQUwYzjPgNVriOKhgAopC0F3IzH1YgvgBYloARqRmCfBnDuz+Dcn4L8OUiR1L+y/D/rnSC19FolECcCHob72c5vTRnOZ8qKxMPU0+X/OH2BdKyZJCBv/bL/X3JZ8F5eedAKgFVLgtfVGkogPgQisw0QDQFQwlV+6l9oF597SEeqBDJAYP+j7fL/4TXIov3knVYAlG/LgGHapBLIGQJL/RTB43jA9RE5LwC8QlpSh18D16r3v+u3k9rnPIFjTrcCoGe/YKZuWmf3/5/7c7B6erUSiB8BOQ1wL+XcaspY6fLw3RcA/TmWPP/tv9RlkGqbEnCegEnYs/+X3AwSCyBImT/dCoA3ngtSS69VAnElMJZKhpmJOB0UyH0BUMrleL4ACOiyHNf7TsetBL6BgET9k+h/EgVQogEGKW+NsAJg7rQgtfRaJRBXAvMxDDNjedhlAE4LAG8QjangRvDT/2rsf5fvJLXNfQId97UOgCdfENzWEfdaAbDe6RXN4OPSGkogMwTEUeZu8rnTjELSBTtZ3BYARRxMwn/7H+IkPTVKCUSJwEEnWAFwaP9gVnsePH4bPDoMKiuC1dWrlUB8CTxHFcPMBKa7isBtAVDMEF8AeBzsKkC1SwlEhsAJZ1sB0PXAYCZvWG3f/l/4W7B6erUSiDMBw3RfAIzHWccZZwWA14cCOnA98CugcZzvIx27Eqg1gfw6MPgHcOGvoGnrYM3NnmqP/00ZGayeXq0E4k1Alv5vZzF/NjPY7iIKdwVAKZ2Szn9XuAhObVICkSIgD315+IsIEDEQpEx6xgqAzz8JUkuvVQJKAP6VdAZc5CIMdwVACSf5AsBwsovg1CYlECkCsuwvy/+yDRC0PHu33QLY7KwvU9AR6fVKIDsEPF71BcA4XstOh8F6cVkAfCsZ/a9rsCHp1UpACfwPgb5FNgDQgScEgyNOf+L899itwerp1UpACQiBBcmogP9xEYeTAsArpQFV3Ijhp0DAA8suYlablEDIBE6+0AoAOQoYpKxZZt/+R94fpJZeqwSUgCWwFY+7SHCnGcsm16C4KQCK6O1H//O4yDVgao8SiBwBCfojwX/O/wU0bBbM/JmTrQB4b0ywenq1ElACloDhcT8q4AQ+cw2JmwKgxA/7K+f/j3UNmNqjBCJHoGVHuPg3MOgKSOQFM3/i49YBcPHsYPX0aiWgBHYQkHDA4gcw1jUkbgqAYq7E+AIgYMBy1/CqPUrAAQKS+EeW/yURUNDy9B+tANi2OWhNvV4JKAFLYDGeHw/gQdeAOCcA/P1/zz/7L/v/Ba4BU3uUQOQISOpfEQCSCjhIKd9uH/5P3hGkll6rBJTA1wlIDIC7MNzumh+AewKghF54DMXo/r9+i5RAWgiUXGaPALYNmE9rxSIrAEY/lBYztBElEFsCHo9jGGrG4dRemosCoCh5/j/geaXY3lo68JwnYKBuPZBsfuLE16AJ1K1vA/rs+OTJnwv2/Hd9joW+/WGfBsFITZ9kBcCHrwarp1crASXwdQIeryfjAUxwCY2LAkDP/7t0h6gt2SEgD295sO94yMuDvlHygS9//urvm0KDplYQfCUACsAXALt+dvu7oM5/MuoZk2HS0/Dl51C+FbZvg/JtsF3+vMX+3Jb8Kf8vWwZeVXZ4aS9KIFoEnIwH4JQA8AZRlwp+AX4K4HrRml+1VgmkSEDexJu1gebtdn4kVG8jedDv8rD3/z/5wJejfNkukgRo7Qr78Pcf/CIA5OG/47MFtu0iBrZugs3rYMMa2Lhm588df5Z6WpRAPAlsAe4kn9+bUUiqYCeKWwKgkI7U8b3/v+sEHTVCCdSWQL2GyYd8268/8Fvs8vAXISAP+pq8pdfWvnTWl6iBWzZ8swDYVRT44mI5rFoCG9dCVWU6LdG2lICLBP5JOcNMGV+4YpxbAqCUo5IJgAa5AkjtUAKBCMiDvF13aNcDWnWyD/3dH/YNGoNJBGo2Jy6WbYKvVgd2CIClVgSs3u2nioKcmHIdxNcIjEomBnrbFS5uCYBihpDwIwAe7AogtUMJ7JWALM23aA/te9oHv/zs2HunAKjfSAFWR0BiDPirAUth9RL7c3dRICcSRBRoUQJRJWCYTpUfD+A5V4bgmgC4Vo5KAC1cAaR2KIH/ISB7822722N18rDvtO9OAdC4JeTlK7TaEthdFCxfCEvmwlL5zIeVi2Hrxtr2ovWVQDYJrJIj7mY892az07315YwA8AZTn638Gvg5EDBeqSs41Y6cJCAPdHHS69DTPvg7728/IgBad4b6jXNy2E4NSk4XrF+9UwCIEFgyG5YtABEHkrRITiRoUQLuEhBHlz+wD7eal3AitKY7AqCUbsn9/8vdnT+1LDYExCGvSSvo0Au67A/dD0k+9LtD87ZQp25sUDg5UDmVIH4Dy+bD8kU2V4F8ZKtA/k62FNSx0Mmpi7lRDyf9AOa7wMEdAVDEMST85X9JBKRFCWSfgDHQpCV0kGX9/aD7wdDlQOjYC5q1tefstbhJYPMGuy2wYiEs+hTmfgALPraiQE4faFECbhAYSxVDzQQmu2COOwKghLOSIYDVAdCFOyNONjRuYd/0O+5rH/rdDrL/Lx78+qYfvTtBVgfEiXDhLJjzvv3In5d/DhKrQIsSCIuAx/RkSODnwzJh137dEQCl/MAXANDKBTBqQ44TkEh6soff7WCQbHny4JeHvnj0hxF0J8dxhzY8iUsgWwI7xMDs92HRLFi9DCrLQzNLO44tgRW+ABjL/7lAwAkB4J1LAWt9B8BfAupC7cKdkas2iMOeeO73OQYOOM7u7bfuYkPrasltAutX2e2B+R/ZVQH5+cWnIEGJtCiB7BCoAO6gKbea4UiWwFCLGwKgiDbJ/f+rQ6WhnecuAVnm73oA9DnOPvh7HALN20MihgF5cneWUxtZRbndIpCVgE/fhVlTrBiQv5NohlqUQGYJ3J/0A/gys91U37obAqCYg5Ln/4dUb7JeoQRSJCBOfeK8Jw97eejLp+uB1rtfixIQApvWweLP4NP3YOYUmDsNls5TXwG9OzJJ4LlkPICPMtlJKm27IQBK6S+KCIOmAE5l1vSavROQzHqtO0GPQ5Nv/MdaBz8J06tFCeyJgCQqkngCCz6yQkA+C2eCbBtoUQLpJCCpgRO+H8DEdDZbk7bcEADFnJdcAdi/JoPQOkrAJyBn9yUwz4HHw8Enwb5H2vC8kn1PixJIlcCaL78uBHR7IFVyel1qBGYmVwCeTu3yzF3lhgDQEwCZm+G4tCze+/sfDf2K4eBC++DXI3xxmf3MjHPX7YFP3rSrAnKUUP0EMsM7Pq06cxIgdAHgFZJPHX4F3AQUxOceiMhI6xTYULeyrC7nq7dutj8lNKsLpWkb6NUX+hZD3yJ7lE/f+F2YmdyxQbYHJOTwR5Ng2niY8ZYNOqRFCdSMgHj/30Y5t5syQvU6DV8ADKA5lf7+/3U1Y6m10kJAHpptukKrjtCgKTRoYj8N5WdTGwVvhwCQRC3yETGwaS2sXGIjsMnZavn7bBTx6pcz/PLQl7d+ic2vMfmzQT6+fci9vXgOfDAB3h8Ps6eCbBe4UCR2hXxP8/JsTgSxtXy7O0LdBUYu2eBxD3kMNWMI9QyqCwKgZ1IAXOzS/MTCFnlgylK5ZLPrtD90OSApAJIPf/mFIufjxZt+1yIx1iW3++4CQN6SJOjKyi9gxRf2LUkCsaSziCjp0mfnG79E7WvUPJ09aFtKYO8EJOzwopkwbYL9zP0Q1q/MDrW69a1QF18XEefi2Crf0x0/JXGVL9CTImDHT/keilBfOscKdVnV0BIeAY/HkgJgTnhGgAsC4Ej/BAAMChNEbPqWXxDyC0QC4HQ/CLofagVAq061XzqXXyryRrRDAMx+Dz563Z63lv3U2hQRIuLJf1iJffiLh79k6NOiBMIiIDkGJN/A+yIExsPnn8DGtem3RnxZ5PspAr3bgXblyxcAuzz49xS90hfqW60Y8AXAYptNUfIjfPHZzkyKG1apX0P6Z626Fkf5JwHG8E51F2by38MXAMUMSJ4AODqTA9W2sbHt+xwLh5XaSHgiBOo3yhwaedOQc9UiAmT/dOEM2FCDxCwtO0K/IjjyVOvhL+PQogRcIbBuhV0FEBEgYuCLWbBlY+2ta9TCrnb16ge9DrMxLNr3qP1Wl4gByaAoq3VL5titjFlvw5cL7LaBlmwQmJI8CTAmG519Ux/hC4BSzk/mANgvTBA53bfsl8sbvzz45SNv0vvUz96QJTXrvOlWBHww0b41pbIi0LCZDeIjD/6jTrW//MQZUYsScJGACF55kL47yn4krkBNirzZy9v+of3tcVZ58Mtq1+5bcTVpe/c64tfz5efWsXF6GcyYrEIgHVyrb2NWMifAU9VfmrkrwhcAJVyVzALYNnPDjGnL4tgnaW2PGGgf/LJfLg/VsIrsk342Fd56Aaa89M2e1OJwKN78Ox78Il40iE9Ys6b9BiEgy+4SSfDtkTBlpF0BS3XVS3xy5Pvat799+Ms2V7aiVu4uBGTVTlYEqhw57RNkDqJwrceyZFbAB8I01wUB8As8bsGg2VjSeSeIs5z8Ejn5QjjoRGjWJp2t17wt+YWyZDZMGg4THrP+AbsWOc8vXv3y8JfQvS071LwvrakEwiIgK1zzPoS3X4Y3nrNL7XsrbbvDMYOtUJclfwlhHUbxhcACeH8cvP4cfPZe+h15wxiXa316bMEwzIzj92GaFqoA8AZRlwpuAW7EAYfEMCcirX03bgnHngEDr7BvES5muluzDN55BUY/BJ+9CwX1oPfhcOQpdrm/Q+/MLHmmFbQ2pgSqISCOd7Id8Obzdntg99DC4pQrR1iLL4OTzrPOfS4UETCSKOnVx+331JXjji6wSY8NHnAn+Qwzo9iWniaDtxK2AGiVFADXBDdda+yRgDjInXA2nHqV3Tt0uWzdZPccZblUBMBRp0CPvlCvoctWq21KIBgB8cKXHAOTX4I3nrU5BqTIFp04tRZfak+2uLJKt2N0sp0htk58DMqesk6DWtJJ4O9JAbAinY0GaStcAdCfHuT5KwCXBjFar/0GAuLcJ0v+hRfYo31RKTveLlz7BRgVfmpnNAjIfS5BhCY9a7fBJFdF6eXQ+wjY0zE+V0YlzoyvPwNj/m0deLWki8AjVDLMTGRuuhoM2k64AqCEQ5P7/2cGNVyv342AeA2f+j048Vw9Jqc3hxJwlYC8VS/4xAoA+c6K018UyrqVVgSMuNfGO9BSewIeLyT9AD6ofWM1ayFcAVDM8ckYAEU1M19r+QQkSMjp18DA72TPa1jRKwElEC8CEu9gwqPw4t9hSWgvrbnEfEIyFsAbYQ0qXAFQxECJhgQcFRaAyPcrYUBlD3HIj6Bdj8gPRwegBJSAwwQkxPe4/8Cof9nTAlpqQ+BtiYJrJjC6No3Upm64AqCYs5MrAI57q9UGcQbrJhJw+EC4+Dc2Fa4WJaAElECmCciDf+zDMPY/KgJqx/rj5ArAs7Vrpua1wxYAlyUFQLeaDyHGNcXL//xfWK9/8aLXogSUgBLIBgERAa88aIXAKk2NXEPk85MC4L81rF/rauEKgBKuBn8LwJEoNbXmmb0G5Ljf4O/b436aFCd73LUnJaAELIH5H8GTd9hARxJASEtQApJLeqgZx/1BK6br+rAFwA3gHwNsnK4BxaadIwfBpUPtUSItSkAJKIFsE5BMgxLR86k74fMZ2e49F/pbD340wLvDGky4AqCYmzC+AKgTFoBI9tukJQy53nr+S8hfLUpACSiBMAiIU+Dzf7FOgZsykAo5jDFlr89yPIaZ8dyWvS6/3lNoAsArJJ8ChuJxU1iDj2y/h5wMl95iM4VpUQJKQAmESWDaBHhkKHwc2mm2MEdfu74Nt7GdoaaMito1VLPaYQqAhtTx9/9/UjPTY1pLsuKdfq099icx/7UoASWgBMIkIPkNXn4ARtwDkhJZSxACf6LcFwAbg1RK17XhCYAiWiRjAFybrsHEoh057id7/4cPiMVwdZBKQAlEgMDMKXYV4L0xETDWKRPvTcYCWBWGVeEJgBLa+0cAPa4MY+CR7FPihYvX/wU3hpcuNJLg1GgloAQySmDjGnjmT/D8X2FLKC+zGR1exho3POgfBRzHkoz1sZeGwxMAA+lKpb8FcHkYA49kn2262Lf/0m9F0nw1WgkogRwmIMcBHxkG86fn8CDTPrSHyWOoGU0oYRXDEwBF9E5uAVyYdqS52qA4/YnznzgBalECSkAJuERg0Sy7DSCpg7WkSuCJ5BbAZ6lWSOd14QmAARwgAwfOSeeAcrqtAd+2KwCtO+f0MHVwSkAJRJDAts3w7J9h+B9h07oIDiAUk5+RF2EzhlBSLIYnADQVcLC7rX5juPBXcPb1kF8QrK5erQSUgBLIBoEpI+0qwOyp2egt+n2EnBI4TAFwOB63YDgt+rOYhRH0ONQu/x97ZhY60y6UgBJQAjUgsOjT5DbAkzWoHMMqHiMxfjTA98IYfXgCoJSjfAEAg8IYeOT6PG6IFQDdD46c6WqwElACMSGwYY0VAC/8LSYDrvUwR/kCYCxv17qlGjQQpgA4NikASmtgd/yqDLzC7v+36hi/seuIlYASiAaBinJ47HfwxG1QVRUNm8O1cmxSALwVhhnhCYBijifBLXgUhzHwyPV52tVWADTTxImRmzs1WAnEiYDEA5BVAI0HUP2sG8ZT5ecDCCWOcngCoJQTkysA/aunpFdw5nVWADRqrjCUgBJQAu4SGPWgjQewcrG7Nrpj2cTkCsCkMEwKTwCUcFLSCVAPtacy8+f8xPoA1GuUytV6jRJQAkogHAKvPW0FwEJNEVztBHi8mnQCfK3aazNwQdgCYCiGwgyMK/eaPP9GKwAkHLCW7BAo3wab1sPmdbB5PWzfBnXqQv1GyU9jOx8mkR17tBclEAUCkg9AtgAkP4CWvRPwKAN/C0B+Zr2oAMg68hp2ePFvrABI5NWwAa1WLYFtW2D1Ulg6F+Q406rFSQEgImCHACgAicmwQwQ0bQPtukOH3iChmus1rLYbvSANBLZugrUrYOPqnXMkf5eXb+engcxRY2ja2m6b6fcmDdBTbELTA6cICoi5AJA4ALoFkMrtoisAqVCq2TWSwnTO+zBnGnzxKSydZwXA+pXVtycPmbbdoEMv6HYQ9OoHPftBi/bV19UrUidQWWHn48vPYYkItFmwfCFIEpodqzRbN0NeHtRv8nUBIAKtfU9o18NG0RTxpiVzBN55xW4BfPpO5vrIlZZjuwWgToDBbmE9BRCMVypXr1sBcz8AeWP5YKJ96Mubfk2LiIGOvUFyNsin12EqBGrKctd64kz28et2SfmLz6wAWLEItm9JrfWGTaFtd7tS0/twm0ujSx9drUmNXvCr3nzeCoB5HwavG78aMXUC1GOAwW71ky+0pwDkAaOldgTkbXLBJyC/qKaNh88/gY1ra9fmrrXFUVPm6ZBCOOo06H2YOm/WhK4ElZGHyLujQN4qF88G8cuoTZEtgX2PhCNPgcMH2G0b3R6oDdH/rSvJgMQHQFZptOydQIyPAWogoCBfDvmFJT4A8stLS80JyD7/jLdg9EPw/lhYl8Iyf017EyEgb5yDroAjTwV5E9WSGgF5yxeB9vbLVgTIUn+6SiIBbbpaASARNuU7JT4DWtJDYOx/7ArAl6FkuE3PGLLXSkwDAWko4GC32AHHWQHQryRYPb16JwFZ3pe3yZH3w6x3QLKXZboYA5LH4dSr4NgzoFnbTPcY7farKu22zJh/w+QRsOKLzI1HHDbFX6PkMjjmdGjSKnN9xanl5/9qBUA6RVvu8otpKOASNBlQkJu6ywF2C+BEzZ4cBNtX18rS8eSX4Mk7rMNftkun/WDQlVB4PrTskO3eo9GfRI778FUY9U+Y/lr2UsrKd6v4UvvdEkdBLTUnIH4Zj90KT/0eRMxp2TuB2CYD0nTAwb4acpRJVgDOuA7krVJLMALTJ9l9SXnAhFXkpMCZP4T+F0OjZmFZ4Wa/8uCQVLKSS/6zqeBlOY58q05w/BAY8B1NuFWbO2TlF/btX0ScluoJxDYd8AAOoIqhgL7SVn+b2Cv8kwC36DJyqrx2XCee40/dCa8+Adu3Bq2d3uv3PQIuuNH6BEhQIS0gCWTEH+Px261/RlhFENJEEAAAIABJREFURHbhBVakddo3LCui3a9s34jQfmtEtMeRPeufIcFQM4ZPstflzp5Ce5X0iugtAwcuDGPgkezzwBPsNkBfTZ+Q8vyJI9LL/wBxTJIgP2EXeegffRpc8Et7TDDuRd70Z78Pj98GU14Kf9m4eTuQzJvis6GZN4PfnW+PtCsAn4WS3j64veHXeEJehM0EPgvDlPAEwEC6UukLgMvDGHgk+5RMgBf92q4ESMQzLXsnIHvK4x+BZ+6ywX1cKU1awuBr4Ixr1PFs4SwYcQ+UPQkbVrsxQ+17wNk3QNElNpqgltQISCTG5/8Gz/wR5AinllQIPEweQ81oQjkyEZ4AKKE9hqF4XJkKJb0Ge1550HdBwgKrI1n1t4R4+ktu8ndfcS83uZ7qsE5+sjrz3J/dWJ3Z9Y7SY7fVf792v0KS/8jbvyQD0pIaAcODeAw141iSWoX0XhWeACiiRXIL4Nr0DinHWzv4RLsNINHMtHwzgbXL4aX74KX/A/mza6VBUzjtKjjrx9A8pkcDZ0y2+8VTx7o2OyCrbWf9yK62NVSHzZQm6K0XrAAQPwAtqRK4N7kFsCrVCum8LjwBUEhD6vhbAD9J54Byvi2JZCbLk4O/r8uTe5vsd0fbh8ust929JcQhUMScvG3GraxfZQWaLP+7KNBkPvoW2fk58Pi4zU7w8UpY7Wf/DC/+vXbhtIP3HPUaf6KcoaaMjWEMJEwBkE+BvwVwUxgDj3Sfujy59+mTvchn74bhd7n9y0j2l0XMnX19/MTcJ29agfb+eHe/iuKrcc5P4fRrNG9AdbMkqzgyn7KqoyV1Aobb2O4LgIrUK6XvytAEgAzBK+YmDLcAddI3pBi0JNHkvlqe1PCy/zPjktRHfhmJY5nrRc6ey9HObge7bml67ZNQzDJHktTH5XLyBckcHHos8BunSZI1iR+HnP0Xvw4tqRIox2OYGc9tqVZI93XhCoASbgBfAKirbdCZlZDAsjx5wLFBa+b+9X460qHw6bvuj1UiBIoAkPPncSkSIvaJO0BCxlZsd3vU+x1lv2dHDHTbzrCsk/l74zl44naY/1FYVkS1X0k9OsyM4+6wBhC2ALgafD+ANmEBiGy/TVvBGT+E038AEsBEy04CL/zNOiO5cqxsb3NTsI9dzTn/xvgkC5JIfyLQ5My466VxC3vqRiJwShIhLV8nsHCmDfv72lPhB9mK3tx8Kc8/M477wzI9XAFQzGX+UUDoFhaASPcrJwHk7VFyz2uxBCTmvzxcnrwzOkTitsw86Rk7R5KGOQpFfABkFUB8ArTsJCCZNEf/E0b8HSQEsJagBOb7RwDH89+gFdN1fdgC4OykADgwXQOKVTvydiJx5eXtpEPPWA39Gwe7doV9uMjxv6gU36lzKMipgDiUF//PzpF4jkehnHiuFdqSNEiLJVBZAe+NthEcZ05RKjUj8HFSADxbs+q1rxWuAChiYDIWwFG1H0pMW5CAQJLARAIEte4cUwi7DHvJHLv8P+HR6LCQY2Z+iOei6NhcG0slI6PMkazWRKEcPsAKgP2PiYK12bFx0SwY/id47UmQiJtaakLg7WQMgNE1qZyOOuEKgGKOT64AxOQ3XzqmbA9ttOtuA5YUX2YDmMS5SKpfebhMfjE6FOQEgDxg5ERArpcobtHIg1/mR4SAFpD8GqP+ZfNr6NJ/be6ICckVgDdq00ht6oYrADQlcG3m7ut1O+8PZ1wLJ50PsjUQ1+JHlxsGU8dEh0DHfe0D5uQY5MWK4hZNlz52hUa2AuJe5OE/9mH78Jc/a6k5gZBTAYvh4QqA/vQgzz8GeGnNKWrNrwh0O8j6A8ibZFxFgK4AuP2FkIyMsv8vOQCiUtr3tAKg6OKoWJwZOyViozz4JYKjPvzTwfgRKhlmJjI3HY3VpI1wBcAgWlHhC4BramK81tkDAREBsgogIkBWBeJW1AfA7RnfvN4KAAkbG5Ui3yNZoZHvVVzL+pXw2nAYcS9I0h8t6SDwd/IZZkYRmjds2AKgblIA3Bj2akQ6ZtOZNsQP4OjToeQy6NUP6tZ3xrSMGxLFJeY4nQIQ73HxHJcsjVWVGb8d0tJBj0OtADj2zLQ0F7lGli+EN54Fid644OPIme+owR5wZ1IAhOYNG6oAkInxSvgFHrdgqOfoREXTLIkzL97lRZdCv6L45J2PopNZ3OIASJ4G8dOQ1YAoFD8a4C1wxKAoWJs+G7dvgc9ngMRtmPQ0LJ2Xvrbj3pLHFowfBfD3YaJwQQBcJZ6QGGKaEzWD059fAF0PgBPOgaMHQ8feUKduBjt0pGmNBOjIRHyDGWP+bQXA8s/dtnOHdYf2twLgoBOjYW86rJT4/h++CpNHwPRJ7mZsTMdYw2jDY5mcgDPjeCCM7nf0Gb4AKOV8XwDAfmGCyOm+W7SHg06Ao06zZ82bt8vp4aK5ANye36njkpnj3nLbzh3W9b/IOgF26BUNe2tjpZzpn/ehPUYr36PFs6MTr6E2485+3Vm+ABjLU9nvemeP4QuAYgYkYwEcHSaInO87Lx/kuJnsN8txs559c3fImg3Q7bmVpWRZARgfWgTU1PmI/8x5P4fzfpb7vjTi2T9lpH34f/YeSNImLZkiMCUZAyDU88rhC4ABHCnRkICYbbBl6r6qpt0GTexy5pDrQzIgC91u3QSyzzz8Lrf3mcVP4+wb4OzrQf4cl7J9q00fK0lkXE8f26G3/b7IKkCulw/LrDCbXpbrI3VhfKMkCq4ZwzthGuOCAOhJpe8DEPNDtlm8DWQ5U36p5XJ5d7RdZp71truj7H24nQfZmolbefN5+7CR5WaXy2Gldo76xCDttgqA7N2JHo+R5wuAOdnr9H97ckEANE8KgOvCBBGrvuMgACRoiQQskaRA8mfXSr1GcOr37AqA+GjErXzxGTx5O7z6BJRvd3P0+zSAwd+Hc34GzVq7aWM6rVIBkE6ae2/L456kAFidvU5dFACF5FOHXwE3AQVhwohN33EQADKZs96x583ffQWqqtya3l6H2TdLOZ0RxyLHNeXhL4mBRAy4WLofDJfcAsedBSb0d6XME1IBkHnGtgdRvLdRzu2mjIpsdbqnfpy4q71SfpA8CdAqTBix6TsuAkA8msXR7Jk/uXWGOe5v/zu+aF98agWAi6sABfvYQFrn3whtu8XjV4MKgGzN84rkCYDQc5a7IQCKOS95EiCGsWuzdc/t0k9cBIAMWTybJe68xDCXOPRhF3mTPOB4uORm6FcctjXh9u/yKkCn/eCim6DwApATNHEoKgCyNcszkycAns5Wh9/UjxsCoJT+/kkAwwlhA4lF/3ESADKhssT81J32TVM80MMs8mA560dQeD40bBamJW70vSO17Lj/wIov3LCpUXMo/RaceR206eqGTdmwQgVANiiDx+v+CYCxTMxOh9/cixsCoJiDkisAMUiIHvaUS+7FGJwC2B2zRDOTUwES3Sys0q47nHo1FF8KzTXw5VfTsGQuPP9XmPBo+GfP8+vYRFoX3gSSWCtORQVAtmb7ueQKwEfZ6tDtFYAi2ogiAq4OG0gs+o+jAJDl5skv2T1nSRmc7SJv/gO/AyddAK07Zbt39/uT44Ai0N58IVxbDzjOOmf2KwnXjjB6VwGQLer3y4q3mcCX2erQbQFwLgWs5dfAL4GYbLiFOPWy/ywiIA6ezbtiluQz746CkffbEwLbNmd+EoSxZJM75So47gxopm/+3whdHkASwEkC0WzekPm52b2HfY+0Uf+OHJT7Uf/2RPeDV60I+2hS9tnHp0fx+r+DptxqhvunAUItTmwBCAE9CZDF+0A8m+UtRzyd41a2bYEZb9nUpu+PhXUrM0dAvP0l2M/AK+CoU6Fh08z1lSstz34fRj1oV2tWLc7OqCQ6pgT6OfUqOKwkng9/If2eBM8aBjOnZId7PHtx5gSA4HdHAJRwVjIr4MHxvC+yOOozf2gFgDg7xbFITvoFn4BEo5s23v5509r0kZAHv2RePKTQRvnrfRjI32lJjYAkoCl7ymaiWzgLtm5MrV5NrmrSCo4+DQZdaedJMmjGtbz5XDI64/S4Esj8uD2mJ7MAPp/5zqrvwR0BUMQxST+A0urN1itqRWDQd60AaNmxVs1EvvK6FTD3A5g2AT6YCJJEqDY56iWevzz4Dz7JfiTYTxyj/KXjxlizDGa9C++Ps46bS+ak9wSHJPnpJMmxToWTzoMufSCRlw7Lo9uGOGHKCoCw1pIpAmOT+/+TM9VBkHbdEQCldMNDAtRfHmQAem0NCJws6U1vsQ8rLbB6mXUMnDMNJDiNZKsTMbA+he0BeehLoBhJFSte4736Qc9++uBPx33lVdmjgZ+8aUXap+/auA61EWliV6tOdqn/iEEgTn+5nh471bl45R9WAKxakmoNvS44gYcxDDNjmR+8avpruCMABlOfrb4j4M+BmEvx9E/011o89gzrBCjOaVp2EhD/AAkWtHSuFQCyB71pvX3gyGf7NqhTYDP31W9kP03bgBzvk6xxbbpAvYZKNN0EKsrtg3/+R/YjqzYLPoblC6EiRT8qmau23aHzfjYQk3j5y7zJsT8tlsDzf7ECYGMat8OU7a4EKoE/sA+3mpfIggdy9fCdEQBiqlfMtcl4AC2qN12vqDEBefsRARCHDGc1hgTI0UFfAKzbRQDU3fnwFyEgjpQmUZtetG4QAiLEZIVGBMCy+fa0wPYtdq4Wz4G50+wDTOalcQuQPX7Z6hKxK6sznfeH1p3j6+i3N9ZP3G4FQKqiKsi86bVCYFXy/P+9ruBwTQAMIcEteKgjYCbvEP+s81ANRZtJxtp25glUVVq/APlsXAOfvWe3CeTvm7a2nx0CoH13jby4txmpLLcP/8dvy/y8xbUHw3SqGGbG85wrCNwSAKUclfQDGOQKoJy0o2dfKwCOOT0nh6eDiiEBiekgb/5VFfbERb3GkKc7iSnfCbKyIjEAnv1zylX0wsAERiX3/98OXDNDFdwSAIV0pI7vCPjdDI1XmxUC4v0sAkASnWhRAkpACYjvi6wAvPyAssgcgX9SzjBThiNJLxyKAyDMvUHUpYJfADcC9TI3DzFvWZZGRQAM/n7MQejwlYAS8AksnGlXAF4LPUFdrk7IFuBO8vm9GcU2Vwbp1AqALwJK+Bb4qwAxSsOV5dtBPJ8l5OmFv1JnqCyj1+6UgJMEpk20AuDj1500LweMWgAMM+P4j0tjcVEAFPl+AJoaOLP3SfFlNhaAHIXSogSUQLwJjPuv3QJYNi/eHDI1ekkBLOf/xzEhU13UpF0XBUCvZEjgi2oyIK2TIoFDTrYCQCLWaVECSiC+BMq3w/A/wBN3ZCdBVhxJezyeDAE826XhuycASmmAx6+AnwIxDsyd4dtEogCKAJCogFqUgBKILwGJ/Cdv/xIJUEsmCEi0qrsw3G7GsikTHdS0TecEgAzEK+ZKjO8H0KGmA9N61RCQo1IX/RrOuQHyNAOz3i9KILYEJH6CCIC3R8YWQYYHvhjPP///YIb7Cdy8mwKgBEkIJALg2MAj0gqpExj8A7sKIKcCtCgBJRBPApNftAJA8mFoyQSBt5IOgGMz0Xht2nRTABTRmzw/IqCuT9dmdqurK4GA5DigBAbSogSUQPwIeB6MvA8e/S2s+TJ+48/GiA2PU8kwM4HPstFdkD7cFADiB1DFjRjfD2CfIAPSawMQ2PcIKwCOPCVAJb1UCSiBnCEg0RMlB8BzfwEJB6wl3QS24nEXCe50bf9fBuqkABDDNB5Auu/DPbTXrC1c+Es49SqoUzcLHWoXSkAJOEVAMivK8v9bLzhlVg4Z4+T5/x18XRYAJyXjAZycQzeDW0NJ5EHJ5XDxr21Oey1KQAnEi8BrT9kAQAtnxWvc2Rqtx6vJ8/+vZavLIP24KwBK6ZRMDHRFkAHptQEJ7Hek3QY4QvMvBSSnlyuBaBNYvxKe/iOMuFfP/2duJv+VTAC0KHNd1LxldwVAHwrowPXgxwRoXPMhas29EmjYDM75CZz1Q5tFTYsSUALxIPDJm/bt//3x8Rhv9ke5HridxfzZzEBiAThXnBUAQsorZggJ/zTAwc6RyyWDjh9ijwN2U8y5NK06FiXwjQQqtsOof8GTt8MKZ5LT5daEGaZT5Z//f87VgbktAIo42BcAMMRVgDlhV5c+dhvgxHNzYjg6CCWgBKoh8OUCePw2GPsfqKxQXJkh8JwvACYwPTPN175VtwXAIBpT4acGvgFQN/Xaz/eeW9inAZxxHZz7U2jcIlO9aLtKQAm4QuC90db7f+YUVyzKNTsk5e/d5HOnGYVsBThZnBYAQswr5fKkM6C6qWfyFjqs1G4D9NHgi5nErG0rgdAJbNkIL/wNnvkTbFgdujk5asD8pPPfwy6Pz30B0J9j/aiA+OGBtWSKQOvOcMEvYcC3NSZAphhru0rABQILPrZv/68/44I1uWrDWD/630QkDLCzxX0BUEhL6vBr4Fogz1mSUTcsvw6cdB5ceBN03j/qo1H7lYAS2BOB7Vth4mPw1O9hsVOZaXNpviqBeynnVlPGSpcH5rwAEHheCVclkwO1cxlm5G1r09X6AZReDvs0jPxwdABKQAnsRmDBJzb07+vDoUJD/2bo/liaTP7zQIbaT1uz0RAAxRQm0wMXpm3k2tD/Ekgk4OjBcPHN0KufElICSiCXCGzdBGP+A8P/CMs/z6WRuTaWsmT63zLXDNvdnmgIgELaUsDNeFztcv4C1yc7Jfuat4MhP4JTroKGTVOqohcpASUQAQJzpsFjv4O3RoBXFQGDI2mih+F+tvNbU8Yy10cQDQEACUr4PvAboI3rUCNvX79iGxfggOMiPxQdgBJQAsDm9fDKP+DZP8OqJYokcwQkp/LvGMd9BpxXWZEQADJXnm4DZO6W3b3lJi3h9Gvh9B9Ak1bZ61d7UgJKIDMEZr1tPf/fHZWZ9rXVHQQis/wvBkdHAJTSGs9fAZCVAD0NkOkvnLz9yyqArAZoUQJKILoENqyBkffZs/9r5AVVS4YIiPf/fRh+Z8ayPEN9pLXZ6AgAEStFXEmCm4EOaaWgjf0vAdn/P+V7MOTHIH4BcS7bttgjU3J+es0y6z1dryG07Qo9+kKL9nGmE97YZR/7y89h4UxYvRQ2rYMGTaBdd+hyADRtHZ5tLvX80ev27f+DCS5ZlYu2LKaK3zKBBw14URhgZASAwPRKORaPoUBJFOBG3sbuB8N5v4DjzoK69SI/nBoNQB4qki1t0nAQJypfAGy3mRNFABx0IkgUxV6HaRjlGgGuYaV1K2H2VHh7JMjyti8A1kODxtCuBxx9Gpx4HkiAqzgX4SLpfl/+B0j6Xy2ZJDAOw1Az1u3gP7sCiJYAGEBzKvklhus0N0Am7+Nk23XqwjGD4fwb7QMubkXe9KeNtznTP3ljz+emRQh0OxAko+LxZ0NbjVid0dtEEtcsmWM92Se/aFdlxMFt9yKrADIfxZdCt4MyapKzjW/dCK8/C8Pvspy0ZJLANjzuIY87zBgiE185UgIguQpwcXIVoGcmZ1PbThKQZdRTroTTvg8tY7bz8vkM+8tz0tMgZ6j3Vlp3gePOtEKgx6FQv7HeQukmIG/9s6bAmyNAktmsrCaNrSS2GngFnHEttOqUbmvcb08S/TxxG7w3RoP+ZH625iTf/h/LfFfp6yF6AmAAh1DJUAxnpg+DtrRXAhIa+Jyf2lDBsvcdlzLuv/DIUFg2P7URi99E78Ptm+dRp0GrjqnV06v2TuCrt/4X7Ju/vM1KQptUimxjiTOrbGPFqYhvxIh7bLrf9aviNPJwxurxAnkMNWP4MBwDatZr9ARAIQ2p46cH/gmgr1k1m/dgtfLy4fCBcNFNsP/RwepG9eqNa+HJO+D5v0K5ZPZMsUg0xXY97R60+Ab07KvOaCmi2+Nlq5fZt/4pL6f21r97I5Lq+sJf2RDX+QW1sSQ6dSXDn4hX8fpPVbxGZ3QuWip7UH+inLtNGSkqUzeGETkBINi8Uk5LbgPEcGM6pBtHllMHfMcup8bBsUqCpYjntARPqUkRb/TOfewxSvl0PQgaNatJS/GsI2+t8z6E98dZJ8xFs1J/69+d2JnX2VWARs1zn6Wslgivx2+FT97M/fG6McKpyeX/kW6Yk7oV0RQAxXQW4MC3Ux+qXllrAu17wJDroegSe9wql8uWDVYASM702hQRTt0PsSKgbzF02g/qN6pNi7ldV05diO+FOF/Kw3/+x7BxTc3HbBJw9vVwyc3x8MuQI5Fyz772NMg9rCUbBP4tL6RmPAuz0Vk6+4imACgknzpchcevMbRNJxBtay8EjIFD+9tfpnL8LZdLVaUNnvLYrekJntKsrT1JcdDxsP8x9py6RFzUYgnIQ37Rp/DRJJg2EeZOg7VpiKUifhlyv571Y5D7N5eLHFF95UEYeb+G+83WPHssw3Ar5TxgyqjIVrfp6iey3wivGNmMvgXDwHTB0HZSICC/UPtfDGf9CDr0+v/2zgPKruq89799p6gXVFFBCAkkEMV0Qh9QQ6bZfqEYG5wQO8ZpznOWveK8lWf8vB6P4OXEju3Yjm0SU21ksGkWajBUUSxRBAIJNYQKSKAGqM3M3W99+9xBgySkKefee8p/s866M+icXX5739n/s/e3v68dD6T4lkVPRUaA82fH1whzrTz6GJhweiQE7Iiana4wO4u8Je8jcbViIbw6DxbNg+UvgO37x5FsrB5zVjT5nzAxjhyTm4cJqMd+G9msvPFKcuuZtZp5Hgqhf+fwdBqbll4B0EB/aoMh4FdxaE21kqPPJqwLvgif/CIMyrCluxlTNf4G7v+PaA/a9lfjSnZM0ATU+FMiw8rDjgPbYsnD8UHzrLh+FaxcGE36dlzN+BrvuNLQQ6MVl9MviUJcZ3n/f9eOyEDSwvy++gzY6pVS+Ql4bI/lBzTzPdfI5vIXGH8JqRUAhsJP5hJ8WAVQ8Pr4x8b+cxx+eGQQaPYAts+d1WTLqs/Phcd/CwufiN+bmjlbGnIIjDo6OkI4/uTIeNDcL9fWZYeqTfrvrIG1r8PyhdESvx3nMyv1A/lY6AgFE1Bmc3HWp+GIkyNvjVn3AWArVb/5F5g/C0wMKFWGgGcBjm+72dxXmQLjLyXdAmAK5t3jn/FcqwBB8Q+OA+Zolu2Xfz0699695wFvT+0NdgzQJitbYn3q95EnujhXA1rB2CmBkeOjCczEwKETwBwM2bZBXQqPsNnEbpP+umXRpL/ipYidxVWI822/lZ+dTjH/C3bmf9xJ0DsHpy5sXN7zb9HY3JdHxNR+6RJf8RYcN1voXzeLNxNf24+pYLoFwPUUeDJM/hYlMOdOv6s0BC1qoBlZmZW7WVxnOZnnOfOqZiJg0dPxrwa0srPz6oOGw4hx0ZFL2xqwFRf72QSBrbgk0WbA3vI3ro0C9Gx4E9Ytjyb71s9yTPrGzJxTmS2FTfx2mRvgrI9Fa/fqJXDfj+GRO8C8JCpVkoBZ/H+HM7nZXU+xkgXHWVaqBYCB8JM5vrQNIM+AcY6M9uZly9S2x2rOVvIQL8Deau2tyzzSWWz1NUtgx7b20urcfbasbdsENvmbCDAbjH5DolMEtjrQ+mlHM8u9bWArH+aF74PNYM6S7LKfbQKySd+W9N9eCRtWRwZ+O8vIxpwuGRNzuGR7/Ueelu3tqLajxwwlzeL/QVn8d+5L1cWnzPNftPz/Qhdzqurj6RcAU+iF52+ArwMZ3oyu6jjZf+E2QTVcEfkIMLfBeUjmKMiM1+y8+ouPwLoVHfMY2BVGdd0jp0JtJ38TAWboZsGJbDumW8/dnxbJsdDBUwbFZrA3epvATeC0flqAGTur/6EAKP28ZUMkAjriNbErDAYcHE34NvmfODkKwpTEVZGutPHjnrX+aPx1ZPRnxpNKlSZgvpW/i+NHbhYHCBJS6ap1rLzUC4DSKsC5wTOgo6FjzdfdsRE4aChM/jO4+DoYOjq2bBOdkVlbmzX7y4/DgrnRp/1eLStseyM2cfChAOgVCYEuC4APdguAph1QrOKKp4kcs5E4aXI0+R8yHrrnKD6FHZ189g9w27dh8XOJ/npktnKexuD5bzaPpr2N2RAAExlIgX8IKwE6Eli9MWkT/3mfhSlfiIzZ8pLsrdf2uV9sjFYEbGXAVgiU4iNgKxujjoze9m3itz3/LB/t2xe55l3RGLvzBngp9XNPfGOjkjnZ0T/HjyjyPTeX1EdZyoQACKsAE7mIQnAPrPgAlfxC7FmWHV+zkLgXfjl/cdjNPsBsAl5ohIWPwusL4N011X1jruZYiKNss2swMWmeJ49viOxMzKti3pJtwZhDqrtuAjv2p1QtAvMpcr2bS+r8/u8LWHYEwFSGUeQfgS8D3ao1OlQu0ZuZWWNbEBZbrs1bMiM5s363YCzm2nbJHyMDuXIcHcwqWzvCZ/YkNvHbZVEVbd8/j+mDrfDcH+Duf4PFz+aRQFLabGFBf0aBG91M1iWlUl2pR2YEQFgFmMTlpSBBObFE60rXl/lZ+wN+xqWRy+Cxx5e5sIRmb29ta5dF3u5MCNgfbzsiZ0u5SvsmYOLRXCW3TvxjP5HvcMoWFXHefXDvD2Hp8xo11SXwainoz13VrUZ8pWdLAFzAaJr5ZxxfkGOg+AZJp3Oy5Vs7nnXJX8PhJ5b/iFqnK1rmB807mx2Pe+3ZyD7AHOKsXgz2x10pMlocPCoy6DMHSBPOiLaP7JRDnpMdo3zi7ii4j8VLUKomgRY8v6KW77iHWFnNisRZdrYEwGXUsJmrS46BxsQJSnl1koAdETx5Klx0XeTz3qzS85qam2Djuujo1tIFkY2ARcAzcZC30K3mAnngcBg5DsaeEK0SmQCw43xZDzXdnvFvTqcspO+MX4CF+FWqNoHlwfFPf25108lMsIVMCQAbIX4i46jhW3g+C2SufdX+FnSqfPPUdvx5MO1LcOy50Ktvp7LJ1ENmMGjbAa1iYNkLuz2/KHvRAAAfqElEQVTo2Tn7LCZ70zcjUXPeM/roaNK3uAfm8bDvgCy2uHNtMkdKc2+HWf8duU5WqjYBj+NOWvi2m8uSalcmzvIzN0H6k6hjQHAP/E9yDxznUOliXt17wbhTYOLn4LQLo4lAKSJgoVzNVsD+8JtDIVsRsDfA4FlvZeR0J42pdcK35X3zZDhsbOSm1wTAiMOjvf1CTRpbVp4621bRG4siJz+PTY/Gg1ISCJjb3xvYyM1uPk1JqFBcdcicADAwfiITKPAt4PK4QCmfGAjYH3tb5m24MrrMv73L5BDsPCzbJjCf+RZEZ8Oq3a51za/ApvWwuXRZ4JeknCqwPjRnPDaht14Dh0VR+Mx1ceunHd8zp0RKexOwPl/4ODTeCc8/DOZZUSkpBO4qGf9lbi8mk399/TS6sYu/oBCOBVrEQKUkERg0Es74FJx3ZXRM0LYIlPZNwDy/2QrAngKgVQhsWR8ZE257L7rMlsAue5u0Z+NKFmPA+qlHX+jZJ7p6D4D+gz868bcVAH0G5tfwsyPcbaXniXuiN//lL5U3fkJH6qV7jcCbFLmRen7pZmDHADOVMikArIe0CpDwcWrHBI8+I1oJMLeu/YcmvMIJq555H7SJ34SAvT3aikAQAO/vFgH2u9katHRy1dIi6tV3BzPkNE98Num3ftr/sz4ME/7gfBt3dnZo2GqP2YDYxG+XeZNUShqBuyiGvf9FSatYHPXJrgC4jHo2B1uAb8oWII6hUoY8LOztoUdFIuDcKyILcKV4CNjkYpN/LAKgTxRjQNs18fSN5WJRFF97Jpr4n3sINr0VX97KKS4Ctvf//+jPzW46mXTekVkBEFYBzmM8NcEvgJ0IyHiw+rjGfBXysX3is/80EgLmBEb7xFXoBBVZMQLmHnre/dHkb0dB83YEtGKgu1RQER8s/7/jHmFxl3JK8MPZFgB2ImAgV+P5X4D8AiR4INJ3EBx3Dpz5mejIoJ0RVxKBLBGw1Rg70//UvfD4dFj9OvgqRlbMEtv427Icz/9lE7dmzfK/LapMC4CwCjCJMbhwJNAcBNXHP06UY2wEzDmMOYY57aLoqKB5g7O9ZiURSDsBM/T740x45sHINfTmt9PeoizX35b7b8Vzg5tDpg0zsi8AbOl/Cpfj+d+AYgSk4Wvbd2AU9c1EwKkXRrYBFuteSQTSRsAMNJe9CM88EE3+65Yl5/hm2lhWrr6v4vg/zOIuB5leosm8AAirAA2MpJZv4PgLIMe+aCv3DepySWZwZg5jTp0WrQiMP0W+4bsMVRlUjIAFfDLnTk/bxP9AFP/BDP+Ukk5gG/ALmviua2R10ivb1frlQgAEETCFi/HBOdBJXYWm5ytIwI6dmdtYWw0wIWCx4WUkWMEOUFEdJrDxLXjlieiNf8GcyKujUloIzLeIsm4WD6Slwl2pZ34EwESGUuCreL6Co39XoOnZKhAw18HHnB0JgRMmwqARVaiEihSB/RAwa35z5WsTv7312xn/nduFLC0EPJtx/IQiP3BzyYWRRm4EQFgFmEQDLqwCNKRlTKqebQiY34ARR8DJU+D4iXDEiYopoAFSfQI73o8s+l98BBbMhiXz5cq3+r3S8Rp4GsPb/2we7fjD6XwiXwKggf7Uch3wVRwHp7PLVOvgkc62Auy44CfOg8NPhIPkSVAjo8IEdmyDta/DS49Gk/9rz0Yum5XSR8Bjnph+QDM/dY3kxlgjVwIgrAJM5vhgC+C4VOGC0/c9/UiN7YjgqKMiEWBiwMLLmmtaJREoJwFb1jdr/pceK038z0T7/HHGXihn/ZX3ngQ8nntxfNvN5oU84cmfAGigO/Vcgw+BguR7NgujvVf/yKVwqxCwAEP9BmehZWpDkghYgKW3lkdR++yN/9WnYcNqKLYkqZaqS8cJrMBxI7u4xTWyo+OPp/eJ3AmAsApwPodSw9eBP9exwPQO3r1qbsFp7MSACQG7xhxL8DCoJAJdIWCBl95aGVn2v2AT/zxYv0rn+bvCNDnPfgD8Ny181z3MG8mpVmVqkksBEETAZD5pMZ5xnFIZ1CqlYgT6DIhiChx3LhxzFow5DiwWvZIIdISARVa0pf7Fz8HLj8MrT8H6N8ACLSllhcCzEJb+/5CVBnWkHfkVAGczmG78FY6/ArRx3JFRk5Z7bUVg1JEw4YzoMiEw+BAwl8NKIvBxBMx7n/nsX/RU5LZ3+YvRUr8591HKEoH1wI9p4j9cI+9kqWHtbUtuBUBYBZjCSSXnQBfJILC9QyaF93XvBcPGwBEnw4TTI6+Cw8dGse2VRCD8MfBRSN7lL5Um/qdg+UL57M/u6PDAA8Hwbxbzs9vM/bcs3wLgdHrQk6txwU3w2LwOgty0u7YOBo2MVgJaVwXsFIHFHlDKJwHb37f9fPPXb2/8tr//5mJ4f1M+eeSl1Z5lwL/wAbe5eeTWW1OuBUBpFeAQ4Gt4rgUUei4vfwDsuKBFG2wVAoceDQMOBhMJStknsG0rrF0a7e/bMv/r8yMLfzvbr5R1Altx3Az8q5vFm1lv7P7al3sBEETAVM6jyPXAOXkeDLlse+/+kVMhOzpol9kMDD+8JAYUPTpTY+KDLfDWimjiX/EyLFsQLfPbGf6W5kw1VY3ZL4HHKHC9m8kjeeckARC5CO5XihT494CtCCjljUBNbeREyCZ/EwSHHQOjJkS/Dxwmw8G0jgeLwLdueTTpr1wYTfz289tvgPnuV8obAXvj/z6eX7o5bMlb4/dsrwRAiYg/n7EUgi3A5+UbIOdfi0JN5EjIDAVHjoPRx0b+Bez3gSOgvnvOASW8+e9tgnVLYc2y0qS/MArNu2EV2NE+pbwS2IbnNorc5B4ONgC5TxIAbYaAn8K00qmA03I/MgQgIuAKkZHgiMOj1QCzGzB7gaGjYfBIMHfEStUlYB76tmyADW9GS/z2lm9v+2uWRsv7O8zXi5II8EzJ6n+GWJT+vAnEbgJ+KgMo8kXgb4GRYiMCexEwMTBsLAw9NBIEdg05JPIvYCGKdbSw/IOmaVd0PM+s9+18vjnrsct+NgFgk77C8Ja/H9JVwmrghxT4hZvJxnRVvXy11QrAHmz9ZI4AvgFcpa2A8g28TORsDoXMbmDIqEgAHDx6tzgYcigMGg7de2eiqVVthHneszd8c8drnvjs0yZ8+9km/XfXwDbt51e1j5JduB3tuAO4yc3m9WRXtbK1kwDYUwCAYyJTKfAt4E8q2x0qLdUEauuh/+BodcAEgH3aVoEJhIHDo5DFvQdAnU4X7LefbZ9+09uRY57WZX2b9O3t3t76bcLXXn6qvyoVrvzTFPk2c5npwBwAKZUISADsYyiErYAWrsWFrYBRGi0i0CkCdrLAjAnbCoD+QyMhEK4h0Pq7bR24nH0dzQmPud0Nk/3b0bJ+689tBYC95Wsfv1NDUA+xCs8PqeFmLf3vPRpy9hen/V8HP4kxOL4GXC0HQe3npjsPQMAcDVmMglYR8BFBMHS3IOg3CHr1A3NjbKcS0pxsojfHOzbZb17/0Un+w0l//W4BoMk+zb2dpLpvBW7F869uDsuTVLGk1EUCYD894SdzLgQHQQ1J6TDVI6MEuveM7AlaBUEQAP0jEdCrL/S0zz1/Lv1e1716qwfmQMeW47dtgQ+2gjnbsWuv3/chAOyMfosi62V0RFe/WZ5GHNe72Txa/cokswYSAPsTAJfQhx1cTZGvKVZAMgdw5mtl2wg9epcEQN9IBAQxUPq57e+2WmD2BTV10VVbW/rc1++lf7P8fTHyhGfGdjYhNzeXPku/7+vfzMreHOl8OOG3mfxNCAQBULrsmJ6SCFSWwFJ782c7t7knkYXox7CXADjAoPTTGEkTf13yFDi4smNYpYlAOwjYaQTzR/ChADjAxG/bEK0ioaYmioS3r4m/VQiEfzMx0EYk7NwB27dGvvOLLe2opG4RgYoR2GCe/qjjx24GdvxPSQKg82PAT+Z4PN/EcSmgYPKdR6knRUAERKCcBHbi+T2OG91sXihnQVnIWysA7ehFfxJ1DOAi4J+Ak9vxiG4RAREQARGoPIE/AjewkQfcfGRgcgD+EgDtHKB+IgMp8GfA3wCj2/mYbhMBERABEagMgZXB21+RX7m5vFuZItNdigRAB/rPX8BoWoIAMCEwsAOP6lYREAEREIHyEXgH+BVN/Mg1YkJAqR0EJADaAantLf58TqSGfwQukT1AB+HpdhEQARGIn4AdM7mfFm50D7Mg/uyzm6MEQAf71k+gnmF8kgLfBE7t4OO6XQREQAREIF4Cz+K5gbXMcIvYFW/W2c5NAqAT/esv5CCagn+Av5N/gE4A1CMiIAIiEA+BpTj+nTpucw+yKZ4s85OLBEAn+7rkH+DLJf8AwzqZjR4TAREQARHoHIF1pfP+P9N5/84BlADoHLfwlD+P8dTyP4ErgX5dyEqPioAIiIAItJ/AFuBOmvm+e4TF7X9Md7YlIAHQxfHgp3AGPvgHmAwozmsXeepxERABETgAgV14Ztm+v5vLPNHqPAEJgM6zi1YBTqcHvYOToG/ISVAXYepxERABETgwAXP2cxPv84Cbx/YD3647Po6ABEAMY8NPZQAtXIXjb4FxMWSpLERABERABPYmsATPD6nhDjeTjQLUNQISAF3j9+HTfjLDcVyL50vAqJiyVTYiIAIiIAIRgVV4fo7jZjebtYLSdQISAF1nuFsETGIMBb6C5xpgSIxZKysREAERyDOB9ThuochP3ByW5xlEnG2XAIiTptkETGQCjr/HcblOBsQMV9mJgAjkkcBmPHcB33dzeDWPAMrVZgmAMpD1UzgNzzfwTMPRowxFKEsREAERyD4Bz3YcM3Dc5GbxTPYbXNkWSgCUgbe/jHo2Mwn4OnAWUFuGYpSlCIiACGSZQDPwhE3+9GOumy43v3F3tgRA3ERL+fkGelPDpTj+AccJZSpG2YqACIhANgn4ENjnezRzn2vk/Ww2srqtkgAoI/9wPLAYbAH+DjiqjEUpaxEQARHIEgHb6/93Ctyl437l61YJgPKxDTn7iQylhqvwfAU4oszFKXsREAERSDuB13H8hBbucHN5O+2NSXL9JQAq0Dv+fEZQyzUlHwGHVaBIFSECIiACaSSwAsfPaeYW9zBr0tiANNVZAqBCveUnBedA1+L4czkKqhB0FSMCIpAmAubo57+Am90cVqWp4mmtqwRABXvOm6MgxxeBq4GRFSxaRYmACIhAkgmsBm7F8ws5+qlcN0kAVI51KMlP5XBa+EscnwOGV7h4FScCIiACSSOwFs/t1PCfbiZLk1a5LNdHAqAKvesnMo4CX8aHAEIHV6EKKlIEREAEqk/A8xaOOyjyMzeXJdWvUL5qIAFQpf72FzCelnAy4EpgaJWqoWJFQAREoFoEzML/19TwE/cQi6tViTyXKwFQxd73UziydDzwComAKnaEihYBEag0AZv8f2PH/dwsXqt04SovIiABUOWR4CdxFI7rAImAKveFihcBEagIgWjy9/xUwX0qwvtjC5EAqC7/UHppJeA6PFfIJiABHaIqiIAIlIdAtOdvb/4/1Zt/eRB3JFcJgI7QKuO9JZuAvyzZBOh0QBlZK2sREIGqEFhb2vP/T+35V4X/XoVKACSjH6KVADsdYH4CHJ+Vn4AEdYyqIgIi0FUCq/HcGc75y9q/qyxje14CIDaU8WQU/AQUuRaCnwDzHqgkAiIgAmkmYF79bqfAzTrnn6xulABIVn9EKwHmMRCuwXENoNgBCewjVUkERKBdBFbguQW4RR7+2sWrojdJAFQUd/sLC7EDCnwOH2IHKIpg+9HpThEQgWQQsKh+/0WR2+XbPxkdsmctJACS2S/RSkAURfDyUhTBoxJcVVVNBERABNoSeLUU1e8uRfVL7sCQAEhu30QiYCJDKfDpIAIcxwG1Ca+yqicCIpBfAs14XgqTf5HfubnYmX+lhBKQAEhox7Stlp/KAFq4AMeX8JyGo0cKqq0qioAI5ImAZzuOZ/D8nBoecjPZmKfmp7GtEgAp6TXfQG/qORsfwgmfD/RPSdVVTREQgewT2Aw8DPySJh5zjbyf/Sanv4USACnqQ38Z9WzhhHBM0PEpYEiKqq+qioAIZJPAejy/t2N+9ON5N51d2Wxm9lolAZDCPg3xAwpci+dy+QpIYQeqyiKQHQKrcNxFkZvl1z99nSoBkL4+CzUu+Qq4CsfVwLiUNkPVFgERSC+BJXhuBe7QGf90dqIEQDr7LRIBkxmO5zM4vgDhhEB9ipujqouACKSDgC3xv4TnVzjucbMxH/9KKSQgAZDCTmtb5XBCoMhEfPAceDbQL+VNUvVFQASSS2ALnsdx3EKBubL0T25HtadmEgDtoZTwe/zp9KAnx1MIroMvBYYlvMqqngiIQPoIrAPupcgtbOMFN4/t6WuCatyWgARAhsaDP4/x1PB5HFcCh2eoaWqKCIhAdQksxfNrWrjNPcLi6lZFpcdFQAIgLpIJycdPYyQtwXPg50t2Ad0TUjVVQwREIH0EdoT9fsdt1PA7N4PV6WuCavxxBCQAMjg2/IUcxE7OwYWQwucBgzLYTDVJBESgvATeAR7BczvdeMw9yKbyFqfcK01AAqDSxCtUnp9APQdzDDVcBfwPYHSFilYxIiAC6SewEribFu7gLV52i+TcJ/1duncLJACy2Ktt2uQbGE0dnwE+CxwLdMt4k9U8ERCBzhPYCSwE7qSGe9xDmBBQyigBCYCMdmzbZvmJDKTAOXiuwIU4AoNz0Gw1UQREoGMENuB5GMdvKPKYm8u7HXtcd6eNgARA2nqsk/X1J1HHAI4uiYA/1SmBToLUYyKQTQJm5f/bMPlv5BU3n6ZsNlOtaktAAiBn4yGcEmjiYuByHCcCfXOGQM0VARHYTWArngXAXdRxv6z88zU0JADy1d+htf5M+tAzTP6XQRADo3KIQU0WgbwTWAXcD0xnGwvck7yXdyB5a78EQN56vE17SwGFLJaAnRKwWAI9c4xDTReBvBDYVvLlfzdwjwL55KXb926nBEB++z5aDbBYAs2cSiGIgAuAkTlHouaLQJYJmCOfhyhyN7U8K1/+We7qA7dNAuDAjDJ/hwfH5OA6+NMQjgzacUGtBmS+59XAHBGwt3473ncP8Dtms9SBz1H71dR9EJAA0LD4kEBYDfCcRpFP4ZgGHCI8IiACqSfwJp4ZFPg9jmf01p/6/oytARIAsaHMTkb+fMZSE6IK2nW8Tgpkp2/VklwR2Ao8D9xHC/e6h1mWq9arsQckIAFwQET5vMFPoh81nIjnEopcjGMMtlWgJAIikHQCHs9yCtyPC5P/AjeHLUmvtOpXeQL6g1555qkq0U/hEIpcgAvHBU8DhqSqAaqsCOSLwHrgaTwPUOAhN4s389V8tbYjBCQAOkIrp/f60+lBHybguRDCdTTQK6c41GwRSCKBD4BXgAdxPMh7LHLz2J7EiqpOySEgAZCcvkh8TXwDg6jjVOCTpcsiDGoMJb7nVMEMEzBL/hXADOAPNPGsa8TC+CqJwAEJ6I/3ARHphj0J+PM5lFqmUgwnBf4Ex8GiJAIiUGECnrdKy/0z8Mx0D/NGhWug4lJOQAIg5R1Yrer7BrpTx5H44Dxoajgt4OhfrfqoXBHIDQHPZuAFYCaOh2jiNdfIjty0Xw2NjYAEQGwo85mRb6A/dXyiJAKmAEfJiVA+x4JaXXYC5sznVWBWmPybeNE1BjGgJAKdIiAB0ClsemivbYGJDKWGU/BMhnCNBepFSgREoMsEdkE4wz8bx2xaeM7N5e0u56oMck9AAiD3QyBeAL6BkdRzFp5JwHmAGQoW4i1FuYlALggUgZXAIzjmsIsnXCPmy19JBGIhIAEQC0Zl0paAtwl/EqMp0ECR83GcrZDDGiMi0G4CZtlv7nsfBx4GGpnDSgcmCJREIDYCEgCxoVRGexLwJ1FHX8ZQG1YC7Dpd8QU0TkRgvwTMcc+88NbfzCNsZbmbT5OYiUA5CEgAlIOq8vwIAX8Z9WwM0QYbKHBuODoYBRrS+NNYEYEoKp9N/E9T5NHwxj+ApW46tvevJAJlI6A/wGVDq4z3WhGYRjeaGIPjnHD5IAQOBWpESwRySKAZWIULrnsfC1cdy90MduaQhZpcBQISAFWAnvciw9ZAfw6jwBl4zsaFrQELNtQt72zU/lwQsAl+OfAU8ARFnmIzK7TUn4u+T1QjJQAS1R35qoy/jBre4xCaORXHmcCZeMbh6JMvEmptLgh43sOxBHgSz5PU8ix9eNNNpyUX7VcjE0dAAiBxXZLPCvmpDKOZk0qrAqfjOBYYmE8aanXGCLyLZyGOeeFtv5b5bibrMtZGNSeFBCQAUthpWa6yn8hAChwTDAXNRsBxIjBCdgJZ7vVMts3e6tfgWRD2+CMDv5fdXN7NZGvVqFQSkABIZbdlv9J+Cr3wHAGcjONUipwEHKHtgez3fapbaMv88DoF5uN5lgLP4VnqZmHhepVEIFEEJAAS1R2qzJ4E/PUUeIoReE7Ac0oQBFHgIUUg1HBJDoEoMp8F6PkjjudwPM8ZrHHXy3lPcjpJNdmTgASAxkRqCITAQ7UciQurAXYdF1YFoG9qGqGKZonA1vC2Dy9BeOOfT3OIzKcAPVnq5Qy3RQIgw52b1ab5BmqpZTgFjsNzYlgdcMFuwJwL6ShhVjs+Ge2yI3zmpvfl8JbvWECRl2hmrWvEzvUriUBqCEgApKarVNF9EfAN9KYbY/EcQzFsDVho4gkQtgjkYEjDJg4CZtBnS/yL8LxIgRdwvMxOlrlG3o+jAOUhAtUgIAFQDeoqsywE/FQG4DmSFo6hEI4R2qrAUcAQuR0uC/IsZ2ruedcDrwIvU2QhNeGt/zU3k41Zbrjalh8CEgD56evctNRbjIEpDKbIBBxHh8sHITC+JAa0MpCb0dChhtqbvk36i3G8iueVcBVYxCw2uMhnv5IIZIaABEBmulIN2ecWgYUmbmBIyXjQBIAJAbvMeHC4bAZyP25sT39tyZjP3vZt4l9sxnw0sl4heHM/PjINQAIg092rxu1JwDcwiALjqOUIfFgRGI/jcDyjdZogN+NlK46Vdj6/9LZvE/7rFFniGnknNxTU0NwTkADI/RDILwA/jb7sYnQQAC6sCJgosGiFh5WMCLvnl06mWr4jGPF5VuBCEJ7X8eFaSj0r3QzsOJ+SCOSOgARA7rpcDd7nVsEE6hnJ0CAA4DA8YykwprQyYCGLBwP1opcKAruADcAb4U2/yHIcy6AkAFbztluE3aMkArkmIAGQ6+5X4z+OQHBF3MIICozGcygufNo2wSG44G9gKNBDBBNBYDvwNp43wxn9aHl/JY43KLKSGtbIFW8i+kmVSBgBCYCEdYiqk0wCpdgEZjQ4quRwqPVzBC64KraARf3le6Ds/WeW+ptxIdDOmhBwxyZ9WPXhp2OtJvyy94MKyAABCYAMdKKaUHkCfhrd2M5g6hlBMUz+w3HhVIFdw/AcjGMYcBBQW/kaZqJE86y3Cc86XHDEYyF01+KD1f5aCqxhF2vowQY3A7PmVxIBEegAAQmADsDSrSKwPwL+Ynqyk6G0cDCFkgAwIRDZDwzBMxjHIAhXP9kUfEjT9uO3AO/geQcX9u/tPP6GMPGbACjyFjW8RTfedvezTSNRBESg6wQkALrOUDmIwMcS8JdRz0YOwjGEQnBOZMcQB+FLFwzAMaC0UtAfH7YR+uGwEwhZ+X56PGaJvwUXAuXYZW/25lFvIy5M+u9Q5B0K4XMDnvUMYJObLmM9fb1EoFwEsvIHplx8lK8IlIVACGjULUQxtMl/AC0cRIFWARCJgCjKYV88fXD0AXoDvUpXz5IRohki1pWlkgfOtAkwAzy77K3cYt7b9T6e93C8B+GInV32hm9795spspkaNoXJ366dbFUgnQPD1h0iEDcBCYC4iSo/EYiBQLAxsMl/J32poQ+e3uFyJQHgMAHQE08PCvTAhxWDbji64cNxRbvq8MH+oBYXAiPV4Cjgw2Xf/dbvv/1mVxEf4te34DFju2ZciHBnE/0uHLvwYa99J44dFNmOK03+viQAPB/geD9cLbxHt0gAaI8+hkGhLEQgZgISADEDVXYiUGkCYTUBulNDNwp0o4Z6mqinljqKYXVgtwAoUgj/RQJgdzIBUMT+9aMCoEATzTRRxy5a2EWRnbQEEbBDb+2V7mmVJwLxEpAAiJenchMBERABERCBVBCQAEhFN6mSIiACIiACIhAvAQmAeHkqNxEQAREQARFIBQEJgFR0kyopAiIgAiIgAvESkACIl6dyEwEREAEREIFUEJAASEU3qZIiIAIiIAIiEC8BCYB4eSo3ERABERABEUgFAQmAVHSTKikCIiACIiAC8RKQAIiXp3ITAREQAREQgVQQkABIRTepkiIgAiIgAiIQLwEJgHh5KjcREAEREAERSAUBCYBUdJMqKQIiIAIiIALxEpAAiJenchMBERABERCBVBCQAEhFN6mSIiACIiACIhAvAQmAeHkqNxEQAREQARFIBQEJgFR0kyopAiIgAiIgAvESkACIl6dyEwEREAEREIFUEJAASEU3qZIiIAIiIAIiEC8BCYB4eSo3ERABERABEUgFAQmAVHSTKikCIiACIiAC8RKQAIiXp3ITAREQAREQgVQQkABIRTepkiIgAiIgAiIQLwEJgHh5KjcREAEREAERSAUBCYBUdJMqKQIiIAIiIALxEpAAiJenchMBERABERCBVBCQAEhFN6mSIiACIiACIhAvAQmAeHkqNxEQAREQARFIBQEJgFR0kyopAiIgAiIgAvESkACIl6dyEwEREAEREIFUEJAASEU3qZIiIAIiIAIiEC+B/w/HlD/w39tSNgAAAABJRU5ErkJggg==;" vertex="1" parent="1">
          <mxGeometry x="-190" y="359.25" width="87.5" height="87.5" as="geometry" />
        </mxCell>
        <mxCell id="WLh6ZahDHB6mBtM96sUv-45" style="edgeStyle=orthogonalEdgeStyle;rounded=1;orthogonalLoop=1;jettySize=auto;html=1;entryX=0.5;entryY=0;entryDx=0;entryDy=0;exitX=0.5;exitY=1;exitDx=0;exitDy=0;exitPerimeter=0;" edge="1" parent="1" source="WLh6ZahDHB6mBtM96sUv-12">
          <mxGeometry relative="1" as="geometry">
            <mxPoint x="230" y="694" as="sourcePoint" />
            <mxPoint x="319" y="861" as="targetPoint" />
            <Array as="points">
              <mxPoint x="230" y="730" />
              <mxPoint x="319" y="730" />
            </Array>
          </mxGeometry>
        </mxCell>
        <mxCell id="WLh6ZahDHB6mBtM96sUv-12" value="" style="outlineConnect=0;dashed=0;verticalLabelPosition=bottom;verticalAlign=top;align=center;html=1;shape=mxgraph.aws3.s3;fillColor=#E05243;gradientColor=none;" vertex="1" parent="1">
          <mxGeometry x="195" y="540" width="70" height="80" as="geometry" />
        </mxCell>
        <mxCell id="WLh6ZahDHB6mBtM96sUv-18" style="edgeStyle=orthogonalEdgeStyle;rounded=0;orthogonalLoop=1;jettySize=auto;html=1;entryX=0;entryY=0.5;entryDx=0;entryDy=0;" edge="1" parent="1" source="WLh6ZahDHB6mBtM96sUv-13" target="WLh6ZahDHB6mBtM96sUv-15">
          <mxGeometry relative="1" as="geometry" />
        </mxCell>
        <mxCell id="WLh6ZahDHB6mBtM96sUv-21" style="edgeStyle=orthogonalEdgeStyle;rounded=0;orthogonalLoop=1;jettySize=auto;html=1;entryX=0.5;entryY=0;entryDx=0;entryDy=0;entryPerimeter=0;" edge="1" parent="1" source="WLh6ZahDHB6mBtM96sUv-13" target="WLh6ZahDHB6mBtM96sUv-12">
          <mxGeometry relative="1" as="geometry" />
        </mxCell>
        <mxCell id="WLh6ZahDHB6mBtM96sUv-13" value="Post-Processing" style="rounded=1;whiteSpace=wrap;html=1;" vertex="1" parent="1">
          <mxGeometry x="170" y="373.75" width="120" height="60" as="geometry" />
        </mxCell>
        <mxCell id="WLh6ZahDHB6mBtM96sUv-44" style="edgeStyle=orthogonalEdgeStyle;rounded=1;orthogonalLoop=1;jettySize=auto;html=1;entryX=0.5;entryY=0;entryDx=0;entryDy=0;endArrow=blockThin;endFill=1;startArrow=classic;startFill=1;exitX=0.5;exitY=1;exitDx=0;exitDy=0;" edge="1" parent="1" source="WLh6ZahDHB6mBtM96sUv-14" target="WLh6ZahDHB6mBtM96sUv-34">
          <mxGeometry relative="1" as="geometry">
            <mxPoint x="410" y="672" as="sourcePoint" />
          </mxGeometry>
        </mxCell>
        <mxCell id="WLh6ZahDHB6mBtM96sUv-14" value="" style="shape=image;verticalLabelPosition=bottom;labelBackgroundColor=default;verticalAlign=top;aspect=fixed;imageAspect=0;image=data:image/webp,UklGRjwuAABXRUJQVlA4TDAuAAAvV8IoEFWH47aRHEnMP+y1d73uGRET0JvmIshV5lprpflWszmKst50uIwWUdaHlY2m2+5CoiuInP9XOdh0dBnpC9W8/f+xX3fz+SdSe5rh/v//uvv6Xvd13fe9chy/XTzvo0ewh8Gqg9q4BrGxEdQNnuGvtp9hbGcN6m57cA/i1I1t41u7DbYGQW28aztOzVVftb0Rp+5GsAa1ET3HsQa1sQaxzWtQG8+ox6rdBt/a7UZsG59BUNtdg9i4arcxN+JsDTio7cZ2arurvmp7HT1s+1NvDWLbzrcO6m7vPagb565XHdRGzI1ga+C9g9+gNmLbuGo7Tm08AwVt27DY+wymoG0bFrq7EgAAINvGtu0tczvbtm3btm12dmbbtm3btzkBeOz/V23JTQ9CWG//zysxhT0BzX9aF96t163ntV70K5GZ7a5MTDWAZ64x+JktlhrNDBFzD0JQqXJNgHXNdLKdmJkngNd0zUyR6JrE6thMqTruUJjLilu1TmrotcrxMwgq/C15BG9dUWa2Y95myKgysy2oVaFHwdQz6LXEMI9aYvUE/ssZk2AGLJm9Bbmp0hsqMp0l2kIzVWoW8ww4VGzq0GwfQ9aZOjdT9jIvhWT2BJht0c5uZ6aOPYZrWEtyI0mOJKdjwiJ7lv2OyLOQIklyJEc9slad+B2hk0Dbtqkt4bdt27Zt27Zt27Zt27YVvmzb9b6vMwGYx//z+H8e/z98IAV4ExBsoVIcSsOwk8XipoNNgsM8hF8DCMNLwuKBDchDSJQj+jRZIPooW3KGMJxkscAKmBxkSfma7W2/QIQR/YmFWMlwkpABxlmI5gsRiP6K/tP3CukC4RZaZGtBAcyRMdYgQicbiP5FlqZR0EVYqBA/Px4qhGbLM9uT/gU0Qlje06ynG/74sCIs9IfND3yxh15ZTgSae1b2Klp/iGCaLbSHA/r2kBfNRfUpq/UcS+hCd5hHgAkKoflXlaln9Z6ygdnSsFhgDe9om7sg0WvWvSfpSV+JkaLfSblisd9/rOEcfqfJAtKT9L5O0ecF9BUYVfQmQRvd4RuGvuclytSTTKmiH7IVm9ErcpIUfS2hMaRlttPXQHcYx+YDS1Ra9Jj6omFuS317qCPBuaRZSGVIu1RPstlKGJoceLDDLUKp9x4Bkz6wCE85Tym6bW7eQPaY2iR7RRKS/SEh+kJPsjE3eakA3DCI0M3a7ay98cDtdDptVOkguM9tSXtuttyZsLiJuU2pCEPvRb/MEYHgx0iSDf0xIAx7cIv9wkK1mQn8Y0wKgswE1/9Ps3AwwSh0Gxv8FyAL2ODPL43oJT3TutlOJn1iBmTLbon+keQ8n2CFYY8OSEYpwUW2KLOFnE4qInkpkCmSKlzLbGWvIDb6TqKxV9iP6NauxoGA+RYdh4BJP6iYkvnYdx8DwYn6ix45rxA9SkZr2INh/f8RiVqXn6ds6EhpUao61vfGAyAAGUpllMfMhibzQrYkIOAuP0fzXmG2lQMBYZgDcJz+DWQBo2fslTZL05R7BQAXUDapOI1kYyTBBhYBfQ/RhdTrJUEOFzC80XAu4YxNX8pqPWV0Sio6s9VrpE/5aLCAQ4L1PKnEDBbDHQ19n5h86jnw0eraZtumZyobJHW3P/jhgAD0B32AwzCIycFWNFm5zrqWUt+qqpswet/UpFauXYIAIAAhAAhh+ALQ95yzppV6K4p+HlT0Yba0978qoMw2/fz9IV7Ve4+pjqbFNgMCSgOQwWzl0jYFt00FMYDghi24taox253PmPS8+FZBli++uxlbXGmljQiSCkMXFYNb358/YtGDQs16J5Uw6f3mvQkQbBgsvs3b+xAsn+Db1gcbK2m/gsZKKtoPaIfEdAAOJ9hKRQqrxhlU08ZLNBk5Vhd6BLPJQQdgwg2OHhWQfcgseCT7MZJjzKAnGT1LxXo68Og+ZF2UOlQMGcy2XKT05oY0tfWJ5hZ8OABZdxCYoC5o5PsUBE1BXhAUGAViAGh9Nh4QKAXZp3AzgrIAAdqxkXXpSXqlJz11e0DoDoCz3bZD5XHMEr2kJ0mzofN6sXCbyRitC0y0uXnhf/7CB2FV6BHSBQtBTMAGGp+BxyoFN2GSJIWrNyLwohkT+XH1pK9Luy/tOz0ZmZotJgTLYqCHgbGOETZSlqY9njI+65pmZIE2N+Gb8FP4ka/wXfjNTuFO6BT8BBagsW48Vik0kuX4+IgUrn8oBJSxkLXrnmxM3kDwl6pseU8aQ+p8aFPmaPMLSDAWtc2eq41LsTT2fEtFj5OXxofaIwufl/CXeQv/ovCnHI1ICltC0g3AQjqDgCrUc1QqyWLEhQuiaMdAVh319Gk9CU38yqgn2eTqHnrThM8NgO27p9xLXHdEL5V6kvTNVPsFj/BhFEe8qz5LjsKvkhROBE8gpAIEZ46UySXXvUqEMY/w1iRT3dXhsCipu3VPMv98z+GRwOdnAUz6+LDc21PXlZ6lPm389vfy1hAGAcmi4EgYuBtYCoOAL0ywpDNSeC/ooB3zwDySs1Rsre8TEyDBuZClTT7NNIQphmADcJN/uXPhaT2WkFGXvgi6SxJkQQq7dwNLIzCxZsqaQiaGYx7fS5J5sa8OLMweag160ucjZovB4HQOmBQEyUsFo68gemZGdUmEqhT27gaWQgAo/EwzogAb8whIwsiT7I08JroIuB+l96xv810QKgUA6+71vYHQVQhA53TSrmZFlo86Y5ewSyhVTUMqT0egQEhTp6kpFIyBSJdE0qcquCEDgH2qZz2pWCCgfHCABMODkSqsHgm+Cwtk/aEgbVFZZTom7XBDP6jhBkshfNz79HeypnpcSVJjGpJCE1qXwNyNkDPm4fA5ylT0jwuMM8AEEACzpfYLDmqcI0JAeQvc5JbF3imZFrsfh0/jArJp12ux6ksVYr04GQaH8nT+osAmcKYVOASooHs9gqUQ+yiFReFG+ExqTKEcFxzQOARCYZ6FS3knghGaMY9nFf1gUcwVOz8jLACHdxHVnQ6LBzbKWwtnjszzt5iSzIu/BrzLAq/xANTUl8S0xJNSmWgPGmGlRaazBDMBFM7I0sWCwraAi9AB4A44zVVTWN52hDGPvnuKCXZJpV/P2OTV15gJBwABwATKhgxIQuBW41jPk6T3vUOHWZLDoj29+liakqTv1QsfS65obt7IBs1qBTQESx28920FQAC2W3hh7aJSCEOTECAQ7D6nxQ4dMQoGaDC2aWFR+r3vjYqh3UXZrsW5Vhc9LJpNlk/5mB560UZIauO9RkSY3JNkMxY7fOg56ulV9DIJJdhBcytDZGrtEBCUpnLkKinMPE6EDngIrI+RHB/V48qR4IkKY5sTmImJ7N18j02h+9ABviGpFWrDs3KuVzdHBLaMxX7naEoy7bV6ooEfwlsXKaMe6tdH6DMAvoLAIOywdiiFL4IJmgR43M12nw9JqtArqKHF2GaGkxkb2icAmPfddAPOJtayUnGplFX39LA/A1eCNg6tnr6nxSWe9xg43NU1Mi2OEu8G/QdrIMgJ7xiTWFPIcKEFBFHBWoh+Iwueh4CHFmObHZg3rqSmtflkMHRvcZPkpeDqBXNP0lfBXIWZgFASsNEg3Y/2WOxKsN1I0MLiGxbUPamHMRhgAUIaa0fJzT5OhCT4gOQGY5sZJgefrKNW5LyTwrpyON11VS8VSTKy6qZuE+XbkAroFVtcexFg2xDCZ9F7Nh9aVxDe1UBAC0HmJBiTCj7vbwPvgPkmoGkDxjYtzOgtrHvvVfTqYSCG0EWGPaXKyFKvT2i2b9XQ0zivcsGGzxGrWQRYhw72VZyXntMvGe1gMFRCM+ukSOGToIrWBcAMY5wh4K12mAiiJ70e6xZg6RwOdHVNSXpS/7o/NJ5GY1W5jA4CAAScsws4IHTxBkWTXtd7qPcAwmBAhZNhmcSa14Mm1ZhnAKQClJ6kpz60rvmHDkU3yLAnT+9JFV317WEI4/S3qJ5eP0eqqmiS9Lrwe+EAIAABAByuvZ9WSq97QIsB0UCwKahJ4xR8UI2hOHT3pN6TjORyhq6DC7vTqHpks8XAwdxFp/SeTCr+Z+Zok6RXsfP1BxEcqu3i/Fevp97rDTD/4BDMp43RWNxkqX5BSpKpLODlAmro8ECN4qBCzyK4DlYdi/S6wDgLnP9X6ylJqjASXKgmw4+pkmlcCu2g8PiLwiGLsZhxXNtY55gRQpK5NpJKQ20t1hBWjTMALDK8QdGk14XmyAR8dc6U9F5litGuZhzf8FEzDhpHdE34QdHi/Qh3jGMwbUhwCrut85Jkrgc1d14IoSbAkRy6AQ6Lrqspo864SWhDusg6o09VeCa4YaIaOJzsbIK9dFFrvP/hYIOigWBbUvsrtE017KyaNvSQ+aapholV0wbrJfNtUw2Tq9aHXjDfNsPkqmlDP5hvq2Fi1fjQQ8E31TC5anwYKG3MehpNSTLV9YwzR7tbowBnAVj8u+ieRnq9E7SDg0y1slkIe3Kk0EX1LqDUIvfeqSC4Uh0jCl6uMDFMnqjS2MTQ7bKmQvqmCT1hbWXosq289Ya1wxbdVo3Px9phQJdN5S0HPzFMnmhcvvJIX7XWE6Gp0G3VhIHRxdQF2iTJyM/bFgCETnvchgHBBQAYxy0vYCQpqsMEHI5xKG0t1x/sWDywMdBgx7NJQXCMMDgabDdrJmrk30STEJA2uAzdWwVAIHk/5/IgQnKnECc47r9AD6Cy3HxlQPOhBcPrERKElKM5mqP5cmsTQgR7QVGgBdA2ll9oPIAbOI9nIMQIqUfTKSTez8cWhAVsAEOfXagMgMAj6K3xaDq/3Nru4IgFSYEcQNNaVh5pfYKvAHzk8ziBuziazg18l7NZJeDb3KxtAAhEgshtCN638+WO5miO5svdzoELVrcwC0DTDgaL934azVnqaba7r59U/ppm9JLgaANACAMq38Y9ayTZfE5YYAKvIbq4+HxkqGHIgLYNioBN/guWSZHC7bWg7QjYa6FDKBEqO4WKs9hn+CTDS3uUQtlbSRSqLiF0tB4CpmAsVAtzC1c6Fy6sCTWXI5Ci9fmEBthlQV/IF4auYwbdKjzsvtC6HEEICG1O1gAQlIWIexA2hLdpdN/JkoWxb7HHNwC0PhurAAHjPIRMYUA4uJOCzmK+pyM0CEECO9C22bS4mf0WSt9Kp1D+XwR3NIA1wGu4A6HrRubQKXxdsjB9O4sHKsun9cCTuB+h9l8I5yXd9Wxhatefv0ANNGEQbC5wYLYUjb4MvY5ofuTP+zfRxE6N85RRuQlCrb77lDn9qNm+fTscgC4OZGFRQwt8b0LXG8EPiAZ7zKhJBS9jLkJHiyugW3hE5dokU3oALQQsIVRYuhOSrIWfnTVJTpkqBDdo8mgBQVrIW+0DsLMeJRbsFC6FiROYQGt5eGCTf/AyhHt21qPkSJIbFY4EcPFAk4UHBBohd4WHzM5RcmSncPxk9hhoQhZD3AXdwigmYAEC5M9+AJKMo8SSJD++MCKoAiEHa9DehtD2IwuSjKNkJcnR6QgtggrQDoTVEkHKij6PVC0KTheeLRDckWURMCEaL5r0OjsJDgQAcIBDDR02FjRmyz9fMePhgGs2EAJmLZo1k2u+Hpgl3Qxn1J0jTkXjEqi4pjqxGHkYcB5vh2RZRGWyxqIkuVpBBj4zMwjciz4JkkVZqNKpsSiVLKYKToDPLuAYfrZwEUmti6h0aoxlSXKBfyEowEI3BnylU/lCJIsyRmWyaixKkjMeo+AChAwqXACn1J3TeA0YBgjoQtT5kKyLqEzWWEZy70/lj8IyC8Bt3MgMkmURVZmsGouS5Byh/xYA67v5ccmPib4CSR9jmpKqxjnUxuK0J0w28GQiWAiLssHQfQg2qbDfp3oV1aG9ZGDABljTWXCnUSHpPDjOzsjnjSpNyeTogeFdTCMLZbdakOXzBywbQ/Wz55AslN1rLEj+i7XDZ4YFF06yUGX3GiM5Rai7G4QuUC1HeCW1UHavsSDr3T8bZLIBjthZ8gdiOm7g55Mald3GgtzS2pH92oXJERmjsnstIjnlTAzWbxZwTkVawXvPsilv8/zoZuGwyhlmXJHU5Spl2sGft2QBY9Slp8Eu0cwAHDGpjsgj33m0PdOiEbJIVWapkXz+gGVghvczlVRl1hrJOZcDWAZmEMiEYZJRmbUquVxBBTCXAX/xRkiNzFojudGnMpEXXoOwTiozVXI9a4dlYcAfXICMyqxVyRV+OvT9pvBDd6i+JFLro/Qxen8pFc6TEITNojRsMAjlSAt+tyoVADcFLPoeoufTlPS6L0wMJus+BAAQCIRCqtJZ8r/AW68o7FMxKrOOyjMArKsACB5filQ6VWOMjDGqJpGqpBAIWFdm2P8jJ5W5Ksk7gDsAZzCNVOapJP/Fk8jlHrD2FbJQZq1cz9oRugu4ml9OUunUGKNqjFE1iVRyjiAA6zMsBGT8dLl8eeHpgj+gtlSZF6K+DCGrwdiGqFZJRp1tnD6yQVMh2+kzT2Q9TBu5928BLXqlwDdkwWSNsYhRU1EL7j+6DsDaSKUzRqbVQhNILSgEoGszrPROGJlaYyxijJqGVKVQNCvJY0KAkcq0qjEWMUZNkXjkXwuW3cvCh2fNRNUYi6iaisolT4d143Hw8zKlFsq0MSZ1zrkF+D4L+PfZ6slmcefhbb76oYVh0fGrbXE6Nyr4FLSRYwhhyjhIcM5QTzYLoQcuLDHscb60x7nvH1ng+ptnMYPUdPuNBj0z2mtGdmoZmVyUmoJK4VQg6iYAt8OoTC6UHJ3P6axWmDuLeYXFqfPNIVkkkSUPvBsDruBOWDBlLAs6izKmIKfxjVhHi+FzpirdWpR0l2VMoxwJymgzKnghN8FxdsZSmVwWaUj+WTRdtJi5QqqrJLn3WxI2bmSzixY2L+MDLHcaWUSH8iQEKNr+wvz44jrJyF81o4fSq816sW0+q3EOyKbElB9HUnGepOcVBVtkg2ThJ7MBISLtBr7nqQjdz3n3l0FSC2XKyCN/UQi9E/ebnVqTHF/P713tfRzylyJZpmCk4N+FASfDUpmoJbnkeziRva6QuHZBe+vnJQtNYtyooNCVoPqlWNAdS5Llx1/uah/jxz/kEckyumqexBoBwMNeD0ulU2uS3PuPf+S7/7yXe8hrIlkWLkZOE2RRZaOc/ewZSRYlyQU+/gGvcD7huSaLmCJSeLoI+FQeL01YYGRyjBw/h3ey0jeBxFkC/2N9zr+XLJOofDoCMUJ/wa1ymySZF3tefxBhc4HTzlDWYgmZZdYFAHaDQbg8PdkrjnMMuMGQeT0qlGmVfP6o0DvUjpKcIYwLGeey/4L4rA+9uWew3S+uYK0u8uOfQjrgoIsYmRgjJ/+mbwMgVFVTDT2Aq9npqaQmKY98VirDws6HJd01+QDC4M9eUFD4H7OO4V6O43p+9kdfBllqwjg//uYAgwEnw6h0lpG8jlM59JXeiyAiYM/9H4u/iRe27slkrQ5G/t6FocmEpJJkTR75D7yKld7L2q9GEH0Kz//1TCVrFyMFEG0as3AhjJpUk+dwPQcPoB1WVTUEgIv4FlfCMonKd4Km37CnREDSp7xldAFnx9sn66LWLmuPhylQ2u1k3XFI50GSPuV/ww4Orbsty7JQdqmR3xMNem3ENf3JbV4l3Lt8Oc+eqim4YKqAF3UlLJgYyXvYeaBqgqHTgh8Cc/ecbuU7gbkMF7NojujUggsIxZsbIuX0t/At5rBQkiNexy0gGODxXZSRzhG56HNZGNKucvFC8mxq4WDByxBwELLRjhEP+C52HinnCpEL5yjNFxL44FNUuANSmTjiRr/nvgPDNhg6zTdDQFB9OyySIqesFE1/IWw8SD6PJPNkg61dHw5TNHQAwIWaOXNzEtwuuQil7bB3kjRCWvu5GlxP9GKhXA5S9wLJmufzbwBUTeuDb9vKMPPLMaa5FZjLEH4gR0xU8qkcPhqP9GEICL4sk0i9CJgDOAOO6IzkPXwtIFRN24bQtk1lwP8Q+kjVmv/iNaA1wEMAlsuayRq5wr85HWiqtvUhtG0zAeDbPJWaI4dGbjfabDpHXPS7AHzVtj74tqmAs3ktHHeocgMYuhrs9cJZMrHm7z1ooApI3zaY+dVYJrDmhz98hP4CBNOxSLJRrDSFJhxOa7aYpOIF24BQK0zv7WE/j73Ukwlm5o0L2KUnycaYlMeSRc3y0AHrtZJbehuwJsBtFfAg1BRr+kowB7BSjugsbwKo0L0HToa1g78T3vV9F1A6lXyQVcI3hpTWBGy7ED7Skpt9nGgAGC7mUXKcyZF8JwcPVN6QMrQtIGhN5XgSC65J0EOb1YgXskq0rcHtG/yHZ886iSWFdgRLMjQXwhETS069FIQWXVuFl/Z0WCdo5PWg6bdsK/Rk5NX7PjHB1S5kmP+VYqjIHQrDQKiRBCeZCLRfUPRW3Iu0zZ9OKv+E9GTkba6DMABiweu4GcDQY5Fb+jZoA9J7NEI/1VUcMYJrI7+X6vqeQECWARfzX1gmKO9ktxEcD8LoIncaaAxdWgu8JOV2T6BF4sfmiMlKnglQBXTdGv6isM86iTXX/R8Qsqn5Jy8GrSF9A0F4uYxJBa/jQ8MntThoqiYUXMYPRWPIssJF/F4WHax5LI8Toc9gjoymJHvFx6L2ATBOf44qSRXVodZ3631MmylVi4J/wNJe8VfIvndUOeV2NgkYekw55/2gRdeGJ1Gm4NanOWJGJirfRwVDtgG7vVHVDpKPF02SQLRRphUSAY8MA/A6NgC0AGA4fGGBhYN8YUCDLM1jr583yyQt+FjRZlLyM207PLq1Fl+MZVLknNeBNsGwykfJETuV4yeCxpBthbsgtUNVdxxNvy0e2B+pKekZkxBEyAqTgy1hqKGM3kfSOMvaGH6LZb2PaWR5n/ppsF7QbB18ACFh+wEz9Br5VtAg0zfCwvVm4F3/h8nKO5kLQ8aG4Z6zToi8j+lmAAy3w7Q7HGDI1IAAj+RfzJLuHQY8sjWPp7AMxgSWFCb2HSEDZX0eaNG9h0C3+ywSlHylaBI8BCmN6tgszJCxx8KWzNjBEe8CZv3lMDn40hhJbm1l1DQAv/eus2XBqGep5/R3g6vJVpTee8/qL6WiuoWAjF7IXjnnrXyXUwBg6LYHlCfxkRGyMNwC6yTl70WbYDgOOgseNnJsIaiy0A7llMtBCyDg96YZ/9AwZG9IHq6b0bXAwSMga2vwVKiaoDWvAG0GNR9lhZABGpwJ6wSOuM+oOgztE+GIncplvDy0yHyI10NNKLjauQj9FWDXKugPOxU1dYB9oPeqk57lfSJY2jy4YWsh68hTVUfpY/SVvJ/+UCCC5VdeSZaTH+DtfLUvdy5/EVn3APkn0SKbmbMZHct1BOy5Q/VO/gMsu4C5q2XRQaUAogIM+z9yRT4V9ORfZKT7RBCQfcDhvx0WCax5FocP60q5pm1Gg2z2eER13AWGHQGbPB0WCeSi0SD7FpczhdqhJTcH319weI032UtSrg6hBiHAnVYYVg5QhdX1BxFsV8ArCf6iOllbrya8+4NUC9VKzFtbyE/5dtD7vTB67rCMpu86ywwW7ij4eC8mD8Pwz7JOKHgZPhg8zoROjeOfDdYL35PqWs8QuVa4gEhNiLySDw3fVckPfwoImXj8xQNm7O7lccTk8VcKn0PAa/i9SRxx6bA+A+zZXgY2YOAWeBmzpRohagzxA6CeCXADS3yCD70Yv/mhPkpAzZheoadvuDUPC1mnWu10+CxDCGZ9dCUwZL0B1t0Yvs0UR82/iTbPIa6Co4TIA35R8GixQmpSwec8HT15OnQqhWTkG7DJLTEmcBp3HCGDrUeFTANOQZhl0Q0g+LBOUM45Bt+0OQ7xARgTaj7zCVi/BdiOtS4MIACbCuIXepqimZJkTKvw5EPDhgEF3y4EZI/O7L3M9rZcT3e4V/TCrQzR872w3zksvbuABcsUTwM53wbHE5R7/2/QGv7DZFdNwRQ9+dKYZm5OqPAoqUk119bAulDWrxRNVocvTHRlWOU1sHB8AOT9dhwF384xIPRbra2MznGoDZbmTDaIZSLJyCsa54hsQInBtzcYhBB0l9YyPV3vbjHJ+sSZGbaZo248tpvJqtPO5TQWfxw5Cqpv4I2wcOgXQxNwHHvvUN3oJhHyM2yzOpTCZpWXx+VslJpQcN2n0FXk+QjSaLOxFvvNsquDXy1jAjn1uW/uOPIU1H71vNSEyPW8qH4L6PTtoX7Lu/x/OVJ9wdSuLuAmxxlppCSZNost7j4RRJJeFniSuS54NGQ1gXcwN+9URRiSvqeii3eDs0nVS8rMQxDheDctfqeDLKbMmJLrjI0WTI68HVQtBPeRo6AwfvCwXviDdEb+ySavgN1ehiPyyD9bVwWnvgmEbDCBXWfd1Sa/lKpjNGNKvjOmKRO10Evpv+MJM/Hed7WX/azpqgKQhFEvJ+nzerHc+Z+syEnPGTlJ9nTOOpioxabQlkr0TEnGtCU2exDYgEnVziPrgGvprsEBUx09XPNRYthibXSWPJNhb7weV8ETQd4W2vkcWvJDI3QlzB1+ZkO8HpZd3QBr9v40Pnf4frv+JZSqc/+iWyGUBIwndBU501gIKNM5nRNCszZJs6FVMH0aepI9vcSmghh2YPNja0GRqVI2SUb67kxkmIIDT1DIzEOQyOJ40mjMWV0lLwTDBh/cVfOw0YsGYSDNFeSGBltycJx/MYPd/w85XEgGHzmNxrzVNc5r6TcHCYakVrSX5vyUCiEEALB4pRXZU7N9W02CE1hX2JMNIj23uKEf1NtiWWOIfncbYSAex/+s6jQbmmSk3jlwGGzh0lm9NTtN75Z8PR1b7xrxG/bIotPcS34tdt814l53VXLRaNAfPTwQtiV6wchUPxZlA45hS0JAUvGFHue9AYtFCxmZ6jvNxzeU8VE/FgM1LPsMPh8jSa+N0zlYbAGLmOSMc3MIPbFZV8lNwvL75XRm85wxsXUgc0S2x8hZLeMcSwLwNssnlQYEwGJysMk0reQA53DGIiebrQdoA4+nkWRkq+8hilBVwAaDUNReND1J6oqCPRAwSWv7Rnu2zuB/wPfaLSD3Fj8/nx+IYb9oz04bBNPM9rbM6YAAdGTL8tTzlwAIQAgABPeiSeZFUmEA2kKzpoyMq50MA3TY1udpSnpdOA0wTNp8by05TS9fAyZS1Txq9KLhc7kKrjS/BsdDHSCjFL0sSPebxSuNXspzVusbEIB7u0HLR37e9RFKgAAAblm9FNkYeSXYgJnCrjbZ/FMgDAAWU/+ATeqXLcIg3LrFj0xRHvJyF96j842fCYYNBFiaDfTIPaS5nPxabCnNu+i3G2DtWtNyF96rX6h8Awj9dj8jDTIvVgbO+bE9RjLqqhZVd5KXTk3pY+/f4eCw3+X16o8Gi4FP4Pamq9/azyAMqVrsN5NVN/qV0MOGFsuJjpK/fJWwXngQV+RP8XkFrP1KHJFXMhfWXwL1ZKrjo6OXDf02tdw6eHFhRKMn6XuFjE41AfOFZ/RM68LZRoIVDnBYQbRwIExgoCEAGdbMVwUchlQeP8XBcd4CmrY3fRsAj5VOoSZEns7M3jhidSg/epOfoHYnjoKr3fd++w+PkTFBORnDtkd9a+hzh1s+ZYO8lD6gYDdbmyR5qVic8DOqO5JGsqk/8XsIAGABi1L3roILtm1dwFvNh8XQKuC7jDtqCjro6YBbeAAHS15KLwACwJTj255Xhe2ms+Sf3eV+m3jmLF2zYJhkPmaR03OLQg/ZJMmecs/XRvWHG5133tgrZMsO5ULXonQcQHB0AYROBjgMsQxrX5Oj5BsZ9pQFP1+aww7oycku5U3kZL6dypg0zjXC0E8A7ocjx5TzQJh0mC2mX5CTnDcWI8nYK95kdaBbnVTiRgSFjop+zDXOEw5lAwCELlZe59uDJQTjHD/F3LwlpAJgA4ZaMJvtUG7pccJ6CC2EfjqVW9p2WA/YnlOTyHPIqcEez6AmaMFbgO+vgNNgqR0kLwHVpKNehk1Pskldbr9Ai/RypMwW88VbOwlH3hFtUqcL2Md+TrkU2mXwISMUUMs95itNYOgVsOsOlhRUkG+ofLqAE6kdLLjH6MnNMboKQQ6WR4X9ZmRiyWM5eFi/fbYfyZgQ+YUEgmC5+MoGRcD6g+gsaoSUlDZ19trHwHhA152DbOsi+5gUVLAUAdlaC1pMbxmdkuvkTa+tkQs6hCGXYfEu5QovJpcAwKcyfN+RizyJWTlYcG1kS1QHp6LNYQJrLKhJ43ys8OgvQytksE4g+VQwzKMFEAbGRoPU3IbUGFLOs3WDdwO66NpZDNjhl83alQ3q6aX0884Ii4A/JX06b8y4IExgyAW0R+6gcjmw7FrMvYbjQLAUMNxDCuU1wLIywBw4ARYuPhVUmbWYezosmVjweJ5138Fj8Sw0IXLyD0WTXYNn8MtnwQbFuh8yKsKU8Zy3Tws41DI4Z21VFt9ATclZ/YKzACHg0CQjzfZ2KrpDMVwANYkcfS1YVh5P4zvwS50IYKkWn4LKw0bIxjDrZmAJhrtZDzVJORLM0WYUIGDvN0sm17wKePRbgEAsDLBMYOTT+Q/wWbU46Dk8nVuADYiD7IrlyHiDN98Wylo3NbRYQ0l61leHDdlBR8lmIczOhBuSPc451CTl3n8twDIJ+A87zII8iz8KmAPwwiLVQRaHDVgGhulCF4UIBEPi0lknUfmlLgfBMjCDgPOyGDWp4AELkAGAFn+ThSYw8ufPRLAsLEBQuxIqv9SPxYC42vJMK5RefadT578r5B+Q7UE9meryZwME05xkb0QmC20MyXAHLJOoXGBzAEJXATgGYYGRSi55twFzQVBldCmLnQZglsoMWOWxkDx0IAAw7Pt1sEyi8ku9AwDB0pkBp/DLWSgTVXnYaNF/Adv+O1knacHXItAAwboxA1Y6h5FKXsPjBGwAdGSrLnyMvhKZCLb4QR/qtv7x54aA8+ckmRdnWt8fxPhnkpELBDOMD8kMG5nNIonK4ntuBAjeUpgHIAhdByMTy3NpYa72WFg6qOQ9vAYAwYdgZiH4APjdnpdUcgNAABCw/9SYRCV/ylcCEHwIZhZC8ACq97NkRjoLfq4KYQCgwUoLxgSy4Be6GQ/4YCmCB5oTmcJIUsnHuNuA9RsCpn1UU5XprFjOe+7Hb/82+QF4ME1J9oonw72rZ9qSdbQy3JAMwDaz1CQqeSO/+KUBsNZ3th7AV9oAqXRfyISZAy/qAVg4yIJ7v9MvajrS/tF/ImRHKqmROw0EwAAhhoUmkQWv5H7m7jJSH/yjFdpJpbPg+bwNtBgEZhBAlg5G8kL+4hCAb70P3rcB8Hu9aEZlYsHx20DoOwQ8FIhki1ruTQ5aFLIgzVNPkj7yMatZLG5m7XZma3KyG2hKem5x7fXU87zFXyDD0MzQbj1HDrIg/+pKP/JLg3ti7T92Nguls+CSF4bgwkqp0cVY8AHeyTbv9WebuRGb9X3fxM4f9K6XjEqSWvAC0Bkwa79ZqoNF5OS38m92+0nMPAXb5bvZ94VdyycW5shC6Yws9xgVBgI8XsOPZOGgFuSen8abmIB7289mu8dZ06klL2E6rO8QAKxjnMNSb729RFDopXqpJ71Oq+S6KGtdDXC2ed6TURf2SM/0yYZs8Jj1HThyMdbkwk/lAq5AkL6WD73X/2Pxr/SZf3yyprvgei4FAU6D3QVrdVFrklMu4+c/5zfyAz/TrZCMJZO14NZvOwA0OIYVslYHtSY57UZ+/ud6I7suTArjx0OyLOiO5B/EBAYEKgiqMxgdZFGS8/6DBd/Cafzqj7zzz/0XL33RkbGgUwv+wOnwGICWZQAesT8Mk4o/05xEcEqNvZz3nlWwgDkyT3ac45ib92kBW4XbXOB0Ou2sPYGkQrVHUoQhyagCyhwR2KEaGryJ4+E0F1mMSPJLLfB/judLkWQd6S45WVCFR0qP9mWxji5Sy3FlcjEqlSmncMEOVBCgB8xaHWQsx5XO0ahgykgKiWgwMDCBIyYLF7WsSXLvJ5/DId8JyVgrnVrwtew7GgxIN34yAPb/zc3bbGWH5dxEoBfslnN4xNVusxgZ0Tlvvr4/f8SwFQKq/ImiR9KTTAthFhmGbGhxKb+X4+oiYzmq2RnH68iU4zyJxcMjdQuB6BqoRQqSWpRlXZaFMvU0rvBtJKDCt9l9ltFFUouyrOuiiExdsthpGAYIGhw4WbhIFvV4wc5yvFS6Y8kd/g+oMEDdRBsAzijomi1GNKGfgbIBP5PQ1S/QvNHIdexWOwhlLN7mTB8pdD/0R8gWtfpeLxIXUoRhqSeTSkN7CAeP7X86LGKKzhiLIirT6jhv5DTg0WWLSkgm61SZ6og7/OngrHA3F0IWabKteRLvAQMGhoOewToNSY2xiFGZtiD3fCYqDNhgswDgdX65U24CSeUnG/gmSeZRBXfYMm0I4RsVFCPq/bz1jrz0bPpyeuQktGCHcmgw81uQRbruS+U1PAkE6wYtwjOYw1JzKckLuRoEBxrs8oGPs9Q8YsEXdwsww4Ax/FBhkaWmyrBkufQJNBjAwU0EAKHEYpe3qSnL9oqtrQtXkuEfRv4g9yRVlZ5l49jeYcOQDi3ad3DIpGanBQ/5iCcQDN17YO49kJqdFpz8bwICUnpgt38nqZlpwfqLzYIZBgzMY+Z2kzEHVX70nQc8BnWwAaUZVs/py/l4xfPDlrSx9kiD9N7H6D0r6hpoY1Bpn01znE4W2ivn0x0C8NleTck8f9N/AAIyNcPE67gV5vlW5gIBqQ24mB1fLnP8k3OBYOhupznu+C/51Anj3OeuAEO4lhfHPA/5CqYDhoHfwfZOmbNiY8RgjhaAGR5V0fAVWd6zsTq6g4kpz6EvdpyaQN5HmmNgyjyuhZpATs4ABuCzvbArcajTsZ67mAvAkHUAhjv+4R3qdKxpuy8FgKFbA6Y/hanUBE12bFQofA0GGLqv8Ejp/mp5nAXdTyUDGNC+n9cyLUmdjvJWLmcjgBkGfxvfrGmlvHigcvCfZPKCuqpqnaMkGWOMqa53LoTBdCUPsIzEk1jg51e957E5LnwZnScxTZhD49r3+pCXkfgAV5JdwBvgepbReRJTrgO+O8AACFhr/FwPMKVm6nrGfAK44xMADDkaADzrk5l3xpqYOm70Tn7nuXxfAIYMDQC+zfcUDtc0YtpiTXM+00HPAmDIssLSuZ5ldE7mruchwHjIy+hcD4VwVN0lf+RHOvVLTYtMG8f3/hyE5L8IAIZJYQbBbR59ucgjy5GCT8B7XXFXJ1nvyEfe4fSVGmQ92aAotOBasNiCaUhr6G1DWkOOw199Pc/8tRzw8cyePfs+lnwj+y3EH/Ha0cOrFPSeyp99jEu+j9mzZx/wkb+4D76BlzeB/I9hjdv9y49n9uzZs+/jC724s7iD02iRpyGtIXNDWkOOMwXVwz6Lp7Pk+5g9e/Z9HM93eD1/cJuvBpNSh1U+pJWXaxR7vgkMKRf1vd88R1/B3JwEW6kAUd0D/MXWPvEGSd0VzlaDw6AOafsB5oMbaUPKHGAhJbK3YOg6BOsRC+jaguVkAd1asBxgPriRowWnN2RvAd0Hm4RgAmuSefQ+bSSCX50Ki2S/eGBnE6j+eIDDLSkt+LZxtj4YetiCbxtn631AD1rwbZPctj5gkmnBt22T3LY+GCatFm/Ook5qscNPhkXq4Jy1tptl2eYCp91BN8NwSwfjHC6x9BX/4CSv8DawmIIuYPilxcxfXsE4g3c7DDIMN22j7PxY6FNnJzblDfP4fx7/z+P/efwN;" vertex="1" parent="1">
          <mxGeometry x="305.90999999999997" y="543.1" width="208.17" height="56.9" as="geometry" />
        </mxCell>
        <mxCell id="WLh6ZahDHB6mBtM96sUv-24" style="edgeStyle=orthogonalEdgeStyle;rounded=0;orthogonalLoop=1;jettySize=auto;html=1;" edge="1" parent="1" source="WLh6ZahDHB6mBtM96sUv-15" target="WLh6ZahDHB6mBtM96sUv-14">
          <mxGeometry relative="1" as="geometry" />
        </mxCell>
        <mxCell id="WLh6ZahDHB6mBtM96sUv-15" value="Indexing" style="rounded=1;whiteSpace=wrap;html=1;" vertex="1" parent="1">
          <mxGeometry x="350" y="373.75" width="120" height="60" as="geometry" />
        </mxCell>
        <mxCell id="WLh6ZahDHB6mBtM96sUv-17" style="edgeStyle=orthogonalEdgeStyle;rounded=0;orthogonalLoop=1;jettySize=auto;html=1;entryX=0;entryY=0.5;entryDx=0;entryDy=0;" edge="1" parent="1" source="WLh6ZahDHB6mBtM96sUv-16" target="WLh6ZahDHB6mBtM96sUv-13">
          <mxGeometry relative="1" as="geometry" />
        </mxCell>
        <mxCell id="WLh6ZahDHB6mBtM96sUv-16" value="Ingestion" style="rounded=1;whiteSpace=wrap;html=1;glass=0;shadow=0;" vertex="1" parent="1">
          <mxGeometry x="-10" y="373.75" width="120" height="60" as="geometry" />
        </mxCell>
        <mxCell id="WLh6ZahDHB6mBtM96sUv-20" value="Reddit API" style="text;html=1;align=center;verticalAlign=middle;resizable=0;points=[];autosize=1;strokeColor=none;fillColor=none;" vertex="1" parent="1">
          <mxGeometry x="-186.25" y="446.75" width="80" height="30" as="geometry" />
        </mxCell>
        <mxCell id="WLh6ZahDHB6mBtM96sUv-22" value="Data Dump Archive&lt;br&gt;&amp;nbsp;(S3 Buckets)" style="text;html=1;align=center;verticalAlign=middle;resizable=0;points=[];autosize=1;strokeColor=none;fillColor=none;" vertex="1" parent="1">
          <mxGeometry x="65" y="551.55" width="130" height="40" as="geometry" />
        </mxCell>
        <mxCell id="WLh6ZahDHB6mBtM96sUv-23" value="Product Indexes&lt;br&gt;(Vector Store w/ Embeddings)" style="text;html=1;align=center;verticalAlign=middle;resizable=0;points=[];autosize=1;strokeColor=none;fillColor=none;" vertex="1" parent="1">
          <mxGeometry x="530" y="550" width="180" height="40" as="geometry" />
        </mxCell>
        <mxCell id="WLh6ZahDHB6mBtM96sUv-43" style="edgeStyle=orthogonalEdgeStyle;rounded=0;orthogonalLoop=1;jettySize=auto;html=1;" edge="1" parent="1" source="WLh6ZahDHB6mBtM96sUv-25" target="WLh6ZahDHB6mBtM96sUv-32">
          <mxGeometry relative="1" as="geometry" />
        </mxCell>
        <mxCell id="WLh6ZahDHB6mBtM96sUv-25" value="" style="rounded=1;whiteSpace=wrap;html=1;hachureGap=4;fontFamily=Architects Daughter;fontSource=https%3A%2F%2Ffonts.googleapis.com%2Fcss%3Ffamily%3DArchitects%2BDaughter;fontSize=20;" vertex="1" parent="1">
          <mxGeometry x="-110" y="712" width="180" height="400" as="geometry" />
        </mxCell>
        <mxCell id="WLh6ZahDHB6mBtM96sUv-26" value="" style="shape=image;verticalLabelPosition=bottom;labelBackgroundColor=default;verticalAlign=top;aspect=fixed;imageAspect=0;image=data:image/png,iVBORw0KGgoAAAANSUhEUgAAAnQAAAJ0CAYAAACbab7PAAAACXBIWXMAAAsTAAALEwEAmpwYAAAgAElEQVR4nO3dbW+c55Un+HNVFctyI05zgG5gvUgw1GADeNDdgCxEhlvBYssPGTiUgVV/gpY/geR33kUcySsj2HeWP4HpT2AK8CheuB3VYu10EDkwP0BjxAEa8MtwkJm0Q4l17QuyJIp6Ill31XU//H5Ao23DqjpwiuTh9b/PuSIAAAAAAAAAAAAAAAAAAAAAAAAAAAAAAAAAAAAAAAAAAAAAAAAAAAAAAAAAAAAAAAAAAAAAAAAAAAAAAAAAAAAAAAAAAAAAAAAAAAAAAAAAAAAAAAAAAAAAAAAAAAAAAAAAAAAAAAAAAAAAAAAAAAAAAAAAAAAAAAAAAAAAAAAAAAAAAAAAAAAAAAAAAAAAAAAAAAAAAAAAAAAAAAAAAAAAAAAAAAAAAAAAAAAAAAAAAAAAAAAAAAAAAAAAAAAAAAAAAAAAAAAAAAAAAAAAAAAAAAAAAAAAAAAAAAAAAAAAAAAAAAAAAAAAAAAAAAAAAAAAAAAAAAAAAAAAAAAAAAAAAAAAAAAAAAAAAAAAAAAAAAAAAAAAAAAAAAAAAAAAAAAAAAAAAAAAAAAAAAAAAAAAAAAAAAAAAAAAAAAAAAAAAAAAAAAAAAAAAAAAAAAAAAAAAAAAAAAAAAAAAAAAAAAAAAAAAAAAAAAAAAAAALgvlS4AoGqfj0ajXvT+MUUa5Yjl2P2/SJE2cuSNHHH99fEX64XLBKiMhg5ojS9Gr16ISB/EXgP3FJsR+b3Xxr9em2tRAAugoQMa75PRaPn70f8oIs4f44+v9WLn7VfG462q6wJYFA0d0GifjEbLz8XgZop86rivkSJtpLj7iqYOaKpe6QIAZvH96H8wSzMXEZEjn8rR/6SqmgAWTUMHNNbN0WsXI+JCFa+VI0ZfjF69VMVrASyayBVopF+NRivD6H8ThxuAOKyt7dh58Wfj8WaFrwkwd07ogEZ6ZncIospmLiJiee91ARpFQwc0zs3RaxdzxGgery16BZpI5Ao0ypyi1oNEr0CjOKEDGmVOUetBolegUTR0QGPMM2o9KEeMPh+9emUR7wUwK5Er0AgLilofshO9F//T+PONRb4nwFE5oQMaYUFR60MGkUWvQO1p6IDauzl6/fKiotaDcuRToleg7kSuQK3tRa23S9chegXqzAkdUGvD6N8sXUOE6BWoNw0dUFs3R69fjoiV0nVEiF6BehO5ArVUl6j1INErUEdO6IBaqkvUepDoFagjDR1QO3WKWg8SvQJ1JHIFaqWuUetBk9h55afj8bh0HQARTuiAmqlr1HpQL/of3RyNFr7oGOBRNHRAbdQ5an2ElUkMLpcuAiBC5ArURFOi1oNEr0AdOKEDaqEpUetBolegDjR0QHENi1oPEr0CxYlcgaKaGrUeJHoFSnJCBxTV1Kj1INErUJKGDiim4VHrQaJXoBiRK1BEW6LWg0SvQAlO6IAi2hK1HiR6BUrQ0AEL17Ko9SDRK7BwIldgodoatR4kegUWyQkdsFBtjVoPEr0Ci6ShAxam5VHrQaJXYGFErsBCdCVqPUj0CiyCEzpgIboStR4kegUWQUMHzF3HotaDRK/A3IlcgbnqatR6kOgVmCcndMDcfDIaLXc1aj1I9ArMk4YOmJvl6HU5aj1I9ArMjcgVmIvPR6NRz+ncQ0SvwDxo6IDKfTIaLX8/+t+E07lH2ezFzouvjMdbpQsB2kPkClRO1PpEolegck7ogEqJWg9H9ApUSUMHVEbUeiSiV6AyIlegMqLWIxG9ApVxQgdUQtR6PKJXoApO6ICZ/Wo0WulF/6PSdTSRhcPQLVdefnllHq87qPLF8urqhUjpHyPnlUhpJSK2ImIjcv44/vSn9eRZEWilYfRFrcc3jV7fLl0IUL1Lp0bL3x9uX8w5jSJitLMT8e6Zn0SO2Oj1Jmvbf87X/++N327O+j6VRK55dfVUpPRRRJx6yr+6Fjs776XPPtus4n2B8r4YvXohIjmdm1GO+IfXx1+sl64DqMa9Rm6SLkWKJ53Cb+ZJ7+33f///zfT1P3NDt9fM3Yx4YrEH/lC+EpPJxxo7aLZfjUYre3e1rpSupQW2erFz0tQrNNsRGrkHpBQX/q/fffXxcd93pmfo8htvrERKn8RRmrmIiJSuRL9/M6+umvCCBhO1Vmp54jlEaKxLp0bLv3jp7OXnBndu55yuHKWZi4jIOa79n2fOPi3pfKzZhiL6M30zX4mUruRz527n1dULM9UBLNxu1BoXCpfRNuf/afTa+dJFAEfz7pmzF55b2v7mOI3cPsv9SB8ct4ZjR675jTdWot+/fdw//wibkfN76caNtQpfE5gDUetciV6hIX7+45dHKfU+ikgrVb3m1VtfHas3O/4J3WBw7GPBx1iJlD5yYgf1J2qdK9Er1NzPf/zy6N0zP7mZUv9mlc3cLI7f0E0mVTd0U9PG7mZ+443RnN4DOCZR60KIXqGGHmzkYlS6nv3qvFh4FP3+zXzu3Ef5jTdWShcD7EatEckw0wKkCAuHoSbeOfXySl0bualZGrrNqop4igvR79/W2EF5otaFEr1CYXuN3EdLS/3bUdNGbqpOQxGHZTkxFGCBcBkWDsPiHXeXXBWOOxQx02LhfO5cyaPHa7Gz86HGDubPVGtRW9ux8+LPxuPN0oVA25Vs5CIiIsXm1d99dfI4f3TWZ+iuz/jnZ3HJcmJYDFFrUcvPiF5hrmZdClyZnN877h+draFbWlqLiJK7kiwnhjkz1Vpejhh9MXr1Uuk6oI3ePXP2QvFGbk+/Pxkf989WcZfrtUjp4qyvUxHLiaFCotZaEb1ChX7+0v96PuWdD+qyRy4i1q7e+uqt4/7h2deW9Hp1eljXcmKokKi1VkSvUIF7u+Ty5JMaNXORJ5OZHmOb+YQuovhwxJNsxs7OW+mzz8alC4GmMdVaV/nt18a/vla6Cmia3Wu6+pejjv3KDMMQU1UtFi45HPEkK3uDE5/YYQeHZ4FwnaXLu//7AIdR59sdplLkj2d9jWoauvLDEU+W0nnLieHwRK21JnqFQ5guBa5zIzfV603WZn2NSiLXiIj8s5+tRa/3j1W93pxZTgyPIWptCtErPMqlU6Plv1y6c3kS0ZTJ8PHVW1+9MuuLVHeXa7+/VtlrzZ/rxOARRK1NInqF/fbvkmtQMxdRQdwaUeEJXUREPnfum4g4VeVrLsBm5LwWk8nHTuzoui9Gr30Uds41RooYvzr+Yubf7KHJit/uMIsKhiGmqjuhi4jIua7DEU+yEild2RueuFC6GCjFAuHmsXCYrvvFmb+/WJelwMeSY1zVS1V7Qnf+/HLcufOHKl+zAMuJ6RwLhBvNwmE6590zZy9ExOU67ZE7jn5/5+SV3/52s4rXqvSELq2vb0VU120WYjkxnWOqtdFMvdIZ0xUku4NbaaVwObMaV9XMRVQduUZEpHTsi2Vr5n5j98Ybo9LFwLyIWptP9ErbNWGX3NFVMwwxVWnkOpXPnftDRAOz7Ccb7906sVm6EKiKqLVVRK+0Tq1vd5jN1h/vLJ28tjGubIdv9Sd0ERE5fziX1y1rZNUJbbMX1a2UroNKiF5pjXdOvbzy7o/PftKuE7kHrFfZzEXMq6EbDtu87NIOO1rh5ui1i7md3yg7S/RK0106NVq+fOYnHywt9W9HSudL1zMvOadK49aIOUWuERH53Lm2dtUHuXWCxtmLWr+J9j0ageiVBmr0LrmjqnD33H6Dql/wnpTei5xHc3v9+rgQ/f75vLp6zXJimuKZ6H+UNXNtNY1eLRym9u43cncu5ZyW53fMVCM5z2V4dK7/6Vo6HPEkdthRezdHr12cRLT5sQgiwl2v1FmnTuQOqHL33H7zeYZuqp3DEU9ihx219qvRaGUScaV0HSyCu16pp3fPnL3w3NL2N4293WE2a/No5iLm3dBFrM/59etKY0ct7UVxXfsG2lWmXqmV3V1yZ2+3ZCnwscxjGGJq7ml1h4YjnkQUS3Gi1q4SvVJWi3fJHc2chiGm5n1CFxFxfQHvUXfTE7ub+ac/PVW6GLpH1NplolfKaOftDjOY0zDE1PwbuqWltYiodHleg41iOPzGDjsWbe82CFFrN4leWah3Tr28opF7WL8/Gc/z9RcyIJxXV69FShcX8V4NY4cdc3dz9PrlSeQrpeugNNEr8/XOqZdXlpb6l8Pd0A9L+frV3/1mrouSF9PQvfnmKHK+uYj3aiiNHXOxt0D4duk6qAULh5mLLq8gOaw8mfzD+7//57kOii5shZ/hiEPI+YrlxFTpi9Frt8NdrexJEeNXx19YOEwlNHKHNOdhiKlFDEVMGY54mpSuRL9/M6+uXi5dCs13c/T65dDMsY+7XqnCpVOj5V+8dPbyc4M7tzu6S+5ocowX8TaLO6E7f3457ty5HR7MPiyrTjg2UStPshO9F//T+PON0nXQPO+eOXshcvpAE3d487oZ4qCFndCl9fWtyHluC/VayHJijm1vqhUeaRDZ1CtH8sBSYM3cUYwX0cxFLDZyjej1unpzxCw0dhyJqJWnyZFPfT569UrpOqi/B3fJpZXC5TTQ4g6yFha5ThmOmNl4byJ2XLoQ6kfUylGIXnkctztUYEHDEFOLPaGLiMj5/134e7bLKPr9m5YT8yiiVo5C9MpBbneo0IKGIaYW39ANh9fCzRFVuBD9/m2NHVOiVo5K9MrU3u0OH2nkqrMT2x8u8v0WHrlGROQ33/wkcp7rxuQOspy4w0StzEL02l2XTo2W/3LpzuVJhHU2FcoRG+/f+urFRb7n4k/odi20a+2I6YndB07sukfUyixEr92zf5ecZq56KfLC+5wiDV369NNxiF3n5ZLlxN0iamVWotfusBR4Mfr9yXjR71kkco2IyKurVyIlTcd8WU7ccqJWqiR6bbdfnPn7izn3NHHzt3b11ldvLfpNS0Wu0+EI5ssOu5YTtVKlfkw+uTka+WHfMu+eOXvh3TNnb+foXdPMzV/OqcglCsVO6CLspCvAiV2L3By9fnkS+UrpOmibdO218T+9XboKZmeXXAEL3j334FsXlN98cxQ5O2FYvM3Y2XnLcuLmErUyT5PYeeWn4/G4dB0cj0aupPzW1Vu/WSvxzkUbuoiIfO7cHyIcAReR83pMJm9bddI8X4xeux0GIZifzV7svPjKeGx4rUE0cuX1+zsnF3V360HlnqGbyosf7WVPSuctJ24eU60swMokBobWGuKdUy+vvPvjs59YClzcWqlmLqIOJ3Tnzy/HnTt/KF0HEWE5ce2JWlkk0Wu9WQpcLzmnV97/+stxqfcv3tBFGI6oIY1dTYlaWTDRaw1dOjVa/v5w+2KepEumVmui4DDE1KDkm9+T0oeR86h0GdxzIfr9UV5dXYvJ5GONXT3sTbWulK6DTplGr6Zea+B+I3fnUs5puR5HMkREpMhFVpU8WEMN7MWut8NwRB1ZdVIDolZKEr2W5USu/koOQ0yVH4qIiLS+vhW5fHfLI1lOXAMWCFNSL/ofWThcxrtnzl54bmn7G9d01dq4dDMXUZOGLiIier310iXwRBq7Qky1UgOmXhfs5z9+efTzMz/5JiJ9FJFWCpfDE9XjQKoWkeuU4YhGsZx4AT4fjUY9p3PUhOh1/uySa5gaDENM1eeEbtf10gVwaCvR79/M587dtMNuPj4ZjZZ70f+odB0wJXqdn5//+OXRu2d+ctMuuYbJMS5dwlS9GrqlpbWIMB7fLCPLiedjOXqiVupG9Fqxd069vKKRa65+f+e90jVM1SpyjYjIq6vXIqWLpevg2Oywq4ColToTvc7unVMvrywt9S9HxIXStXBs46u3vnqldBFT9TqhizAc0XwXnNjNRtRK3Ylej+/SqdHyL146e3lp0P8mNHMNV49hiKnaNXTp00/HEfXJpDm2C9Hvf5NXVy9r7I5G1EoDiF6PaNrIPTe4c9sKklbY+uOdYa0OoGoXuUZE5HPnLkXEB6XroDKbMZl8mH71q2ulC6k7UStNInp9OkuBW2vt6q2v3ipdxH61O6GLCMMR7bMSvd4Hdtg9maiVphG9Ptm7Z85ecCLXTjux/WHpGg6qZUOX1te3IqVx6TqonOXETyBqpYFEr4+wu4Lk7O2I9JFGroVSbP7y1q2N0mUcVMuGbk/tul8qo7E74J9Gr52fRLpUug44unzp89FoVLqKOnhwl1xaKVwO85JzbVaV7FfLZ+im8rlz30TEqdJ1MHfjvVUn49KFlPCr0Whl767WldK1wDFt9mLnxVfG404+KuN2h27p93dO1uHu1oPqfEIXkbObI7phtHfrRCdXnQyjL2ql6ToZvbrdoZPW6tjMRdT9hO78+eW4c+cPpetg4TqznPiL0asXdi/fhubrytSrpcDdlXN65f2vvxyXruNRat3QRUTkc+f85tNdrW7sRK20UKuj13srSHK6UroWCkixefV3X50sXcbj1DtyjYhIqZYPH7IQu7dOtHQ5saiVFmpl9PrQUmC6qabDEFO1P6GLiMjnzv0hwuh3x21Gzmvpxo1af0EdlqiVNmtL9GopMPvVdRhiqv4ndBEROVthwkqkdKUNq05+NRqtRKTWnWLAVBsWDv/izN9ftBSYe1K+XudmLqIpDd1w6Moophq/w07USgc0Nnp998zZC++eOXs7R++aRo6pvJPXStfwNI2IXCMMR/BYm5Hze+nGjbXShRyGqJUuaVL0apccj1XzYYipZpzQRRiO4HGmJ3bf5DfeGJUu5klErXRNL/qf1D16tUuOp8oxLl3CYTSmoUuffjqOiFaOwlOJU3VfTixqpYOWJ9Gv5Ym0Ro7D6vd3GnGg1JjINSIir65eieSEg0Op1Q47UStdliP+4fXxF+ul64jYWwo86H0QKZ0vXQuNML5666tXShdxGI05odtTi28INMLuDrsanNiJWum6FFF86vXSqdHy5TM/+WBpqX9bM8fh5Y9LV3BYjWro0o0bGxHNyLKpjeKNnagVykWv+5cCTyIulaiBhkqxefXWb9ZKl3FYjWro9lwvXQCNdCH6/Zt5dfVyXuBJwW7U6r5HiIjz/zR6bWEnYw/d7mAFCUfVkGGIqUY9QxcRkc+fX447d26HmyM4voWsOnFXKzxkqxc7J+d516vbHahK3W+GOKhxJ3RpfX0rcnMybWppIcuJRa3wkLlGr++eOXvhuaXtb5zIMascsdGkZi6igQ1dRET0eoYjqMLcGjtRKzxW5dHrz3/88ujnZ37yze4keVqp8rXpphTNu3K0cZHrlJsjmIPN2Nl5K3322XiWFxG1wlNtbcfOiz8bjzdneRG3OzAvf7yz9O+ubczv0YB5GJQuYAbXwxcx1VrZW0483mvsNo/zIqJWeKrlZ3aj12Pt99LIMWdrTWvmIpoauUZELC2thZsjmI/RcVediFrhcHLE6IvRq0daI/LOqZdX3O7AvOWcGvmcfmMj14iIvLp6LVK6WLoOWu9Qt06IWuHIDhW9vnPq5ZWlpf7l8MsS85Zi8+rvvjpZuozjaO4JXYThCBblUMuJRa1wZNPo9ZGmu+SWBv1vQjPHIuTciHtbH6XRJ3QREfncuW8i4lTpOuiMzch5LSaTj/ef2LmrFWaR335t/Otr07+zS45SmrZ7br/mN3Srq1ciuSeThbu3nFjUCjPb2o6dF/+frdjSyFHQ2tVbX71Vuojjan5D5+YIytrc3L67+V/u3B2VLgSa7G6OjS//x3crGjlKyTm98v7XX45L13FcjW/oIuyko7zvco7b23fj27s7pUuBxvqXP9+Jf/U1RAkNHoaYavZQxFRKjX2IkXY4kVL8x2eW4uxfPBPLvXZ8WcGirQwHcSK14pyBhknR/CtFW/GTJ3366TjspKMGTqQUp58dxukTQz+Y4IgGKcULzyyVLoMO6vUma6VrmFUrGrqIiMjNu3eN9lru9+LsXzwT//GZJY0dHMFyvxc/GPRLl0G3jJs62bpfexq64fDa0/8lWKznB32NHRyR6JXFan7cGtGSoYgpwxHU3bd3d+L29t34LufSpUCtbe1MYuO77dJl0HYtGIaYas8JXYThCGrv+UE/Xnp2GCeXnEDAk4heWYgc49IlVKVVDZ3hCJpgkFKcHA7i9LPD+KEfWPBYolfmrd/fac1BUKsauogwHEFjnEgpfrS36uR5jR08xNQrc9aKYYip9jV0hiNomP077DR28CDRK/PTjmGIqVaeZRuOoMncOgEPuptzfP1v24aJqNLW1Vtf/bvSRVSpfSd0EREpiV1prOmJ3ekTQ7dOQIhemYv10gVUrZ0/LQaDcRiOoOGW+704/ezQDjsI0SvV2ont1h38tLKhS+vrW5HblY3TXZYTwy5Tr1QhR2z88tatjdJ1VK2VDV1ERPR6rTtOpds0dnSd6JUqpGjnNozWNnR7O+nGhcuAyk0bO8uJ6SLRK7Pq9yfj0jXMQ2sbuj3XSxcA8zJdTnxyaVC6FFgo0SszWGvT7rn92t3QLS2theEIWuzE3q0TdtjRJaJXjivn1Nrn61vd0BmOoCssJ6ZrRK8cWYrN97/+cly6jHlpdUMXEYYj6BSNHV2yG732pDAcTs6tubf1UVrf0BmOoIssJ6YLBinF355YWi5dB83Q1mGIqa58pzccQSdZTkzbfa+XYsVgEE+T8vW2DkNMdaOhMxxBx9lhR5utDAfxvZ7PNY+Xd/Ja6RrmrTNfAfnNNz+JnM+XrgPq4Nu7O3F7+67LzmmN/z7J8fW//bl0GdRRis2rv/vqZOky5q0bJ3S7WrkZGo5jemL3I/u8aAnRK4+Vu/EcfWcauvTpp+PIebN0HVAnP1y6v5x4oLGj4USvPEq/v9Pq6dapzjR0e+ykgwOmy4lfenZo1QmN98Izw9IlUC/jtg9DTHWroRsOr5UuAerKDjvaQPTKg7pzuUDnzqbzuXM3I2JUug6ou+9yjtvbd+PbuzulS4Ej+/2/bW/9cTKxo67LOjIMMdWtE7qIiJQ6kaXDrPaf2FlOTNP8zYmlZc+FdlxHhiGmOvddeu/mCDvp4JBOpBSnnx3G39lhR4OcSClWljw60GVdGYaY6lxDFxEROVthAkf015YT0zA/WBrEcr+bP+bozjDEVDc/6YYj4NjcOkGTvPDMkpU8ndSdYYipTjZ0aX19K6Jb2TpUTWNHE4heO2nrj3eG66WLWLRONnQRYTgCKvL8oH9vObHGjjoSvXbO+rWNceeele/uJ3ww2AjDEVCJ6XLi05YTU1Oi1+7IOXUubo3ocEOX1te3DEdAtSwnpq5Erx2RYvP9r78cly6jhM42dHs6l7HDImjsqCPRawfk3NnHqTr9yU43bmyE4QiYG8uJqRvRa7v1+5Nx6RpK8R024nrpAqDtpsuJT58YGpygKNFrq611bffcfhq6paW1MBwBC7Hc71l1QnGi13bq6jDEVOc/0XvDEZ3+EMCi2WFHaaLXlunwMMRU5xu6iIjo9QxHQAEaO0oRvbZL6uDNEAdp6CIiffrpOAxHQDHPD/rxkuXELJjotT16vcla6RpK80m+z3AEFDSwnJgCRK+tMO7yMMSUhm7KcATUgh12LJLotQ3ErRERfi3ZJ6+uXouULpauA7jvu5zj9vbd+PbuTulSaLGN77Zja2dSugyOKsXm1d99dbJ0GXXghG4/wxFQO07sWATRa0Nlz79Paej22RuO2ChdB/CwaWN3+sQwvucHLxUTvTZTv7/T2au+DtLQHZSz4QioseV+L16y6oQ5MPXaOIYh9vHJPWg4vBaGI6D27LBjHkSvTWIYYj+f2kfI587djIhR6TqAw/v27k7c3r4b3+VcuhQa7l/v3I1/2b5bugyexDDEQ5zQPUpKMnlomOmJneXEzEr02gCGIR7iE/sIe8MRYldooOly4pNLg9Kl0GCi13rbie0PS9dQNxq6x8nZhwUa6sTerRNWnXBcJ1KK/zAc+MW+hnLExi9v3bKR4gAN3ePsDkcADWaHHbP4nwf95b/yuamdFA5cHkVD9xhpfX0rQkYPbaCx47heGA5ErzXT70/GpWuoIw3dkxiOgFbZv5x4uefbH083SCleGHoes0bW7J57NN/RnsBwBLTTcr8Xp58d2mHHofzVoB+i13rIOdk99xgauqcxHAGtZTkxhyV6rYEUm+9//eW4dBl1paF7mslkrXQJwHxp7Hga0WsN5OwxqCfQ0D1F+uyzzTAcAZ0wbex+NLScmIeJXssyDPFkGrrDSEnsCh3ywyXLiXk00WshKV83DPFkGrrDGAzGYTgCOsVyYh5lkFL8zTNLfh4sWN7Ja6VrqDu/ZhxSXl29FildLF0HUMZ3Ocft7bvx7d2d0qVQA//y5zvxrz4Li5Fi8+rvvjpZuoy6c0J3WL3eeukSgHIsJ2a/Fc9ZLkzO+XrpGppAQ3dIezvpxoXLAArb39hZTtxdg5TihWeWSpfRCYP+xFWch+C70dH4LQGIiN3G7vSzwzh9YuikpqOW+734gdPaeRsbhjgcDd1RLC2theEIYJ/lfs8Ouw4Tvc5bdjPEIfkUHpHhCOBJvr27E7e378Z3OZcuhQXZ2pnExnfbpctoH8MQR+KE7qgMRwBP4NaJ7hG9zkn23PpRaOiOyHAEcBjPD/r3lhNr7NpP9Fq9fn/HVV9HoKE7HsMRwFNNlxOffnZo1UnLmXqtnGGII9LQHYfhCOAI7LDrBtFrlQxDHJWG7hjS+vpWpDQuXQfQLBq79hO9VmLrj3eGnlc/Ig3d8X1YugCgmSwnbi/RayXWr22MpWBH5DvJMe0NR/jAAcdmOXE7iV5nk3MStx6Dhm4WOTulA2ZmOXH7iF6PKcXm+19/OS5dRhNp6GYxHLpfDqiMHXbtIXo9ppytKjkmDd0M0vr6VthJB1RMY9cOotej6/cn49I1NJWGblYp+W0CmItpY2c5cXOJXo9kze6549PQzchwBDBv0+XEP3Ta0zii18MzDDEbDV0VDEcAc3YipfiRHXaNJHo9BMMQM9PQVcFwBLAglke6zrgAAAyLSURBVBM3k+j1ySaTiYORGWnoKmA4Alg0jV2ziF6fbGmQ3QwxIw1dVVLy2wWwcNPG7vSJoVsnak70+hgpXzcMMTtf/VUZDMZhOAIoZLnfi9PPDq06qTnR6yPkcDpXAZ+qCuXV1SuR0uXSdQB8e3cnbm/fje9yLl0KB2ztTGLju+3SZdRDis2rv/vqZOky2sAJXbX8lgHUguXE9SV63Sd7/rwqGroKpRs3NsJwBFAjlhPX02702uv8Yzr9/o7l/BXR0FXveukCAA6aLic+uTQoXQqxO/X6tyeWlkvXUdjYMER1NHRVW1paC8MRQA2dSClODgdWndTE93opVjrdYGc3Q1TI+fsc5NXVa5HSxdJ1ADzJdznH7e278e3dndKldNrX//bn+O+Tjg2vGIaonBO6eej1DEcAtWc5cT288MywdAmLZxiichq6OUiffjoOwxFAQ0wbu5eetZy4hC5GrzuxbRl/xXzlzo/hCKBRvteznLiUleEgvtfrxn/zHLHxy1u3NkrX0TYaunkxHAE0lB12ZXQlek2Rnc7NgYZuTtL6+lZkEzxAc2nsFqsr0Wu/PxmXrqGNNHTzZDgCaAGN3eKsDAfxXK/VC4fX7J6bDw3dHO0NR3hOAGiF5wf9e8uJBxq7ufmbE0vLbf3vm3OSXM2Jhm7ecjYcAbTGdDnxS88OrTqZkxMpxcpSC//bpth8/+svx6XLaCsN3bwNh9dKlwBQNTvs5usHS4NY7rfsR3TO7m2do5Z9Wuonra9vhZ10QEtp7ObnhWeWWhVtG4aYLw3dIqTktxKg1fY3dpYTV6Nl0athiDnzVbcAe8MRbZ5aAoiI3Sbk9LPDOH1iaCK2Am2JXvNk4nnyOWv+p6QpskWKQHcs93tWnVSk8dFris33f//P1njNmYZuUQxHAB1kh93smh69prBkfxE0dAtiOALoMo3dbJocvfZ6k7XSNXRBMz8dTWU4Aui4/cuJNXZH09DodWwYYjE0dAtkOALg/nLi05YTH0kzo1dx66Jo6BbNcARARNhhdxyNil5TbF699Zu10mV0RUM+Fa1i0gdgH43d0TQmes2eG18kDd2CpRs3NsJwBMBD9jd2fz3w4+lxmhK99vs7nhtfIF8xJaQkdgV4jBMpxd89YznxkzQgejUMsWC1/jS01mAwDsMRAE9kOfGT1Tt6NQyxaBq6AtL6+lZkH3aAw7DD7tFqHL1u/fHO0PPiC6ahK6XX82EHOAKN3cNqGr2uX9sYS6EWrHafgq7Y20k3LlwGQONMGzvLiXfVLXrNOUmgCtDQlXW9dAEATTVdTvzDjq86qVX0mmLz/a+/HJcuo4s0dCUtLa2F4QiAYzuRUvzIDrv6RK85W1VSSA3+1+8uwxEA1bCcuB7Ra78/GRctoMM0dKUZjgCoTJcbuxpEr2t2z5WjoSvMcARA9aaN3ekTw1judedHXcno1TBEWd35lNeb4QiAOVju9+L0s8NOrTopEr0ahihOQ1cHhiMA5qpLO+xOpBT/y3Cw2Dc1DFGchq4G0vr6VqQ0Ll0HQNt1pbH7nwb9+KsFPkNoGKI8DV19fFi6AICu6MJy4heGg8VErylfNwxRnoauJvaGI8SuAAs0XU58cmnBEeUCDFKKFxYQveadvDb3N+GpNHR1krNTOoAFO5FSnBwOWrnq5K/mHb2m2Hz/9/9s/VYNaOjqZDi8VroEgK5q6w67uUav2dqtutDQ1UhaX98KO+kAimpbYzfP6LXf3zHdWhMaurpJyRcHQA1MG7uXnm3+cuI5Ra9jwxD10exPaAsZjgCol+/1dpcT/13DV51UH726i7xONHR1ZDgCoHb+uuE77AYpxd8+s1TNi6XYvHrrN2vVvBhV0NDVkeEIgNpq8nLi5X4vflBF9GoYonY0dDVkOAKg/pra2K0MZ1+mvBPbkqSa0dDVVUq+WAAa4PlB/95y4iY0doOU4oUZotccsfHLW7c2KiyJCmjo6mowGIfhCIBGmC4nPv3ssBGrTmaJXlN4zruONHQ1ldbXtwxHADRLk3bYHTd6/eOdoZshakhDV2e93rh0CQAcXRMau2NGr2vXNsbSoxrS0NXY3k66ceEyADim/Y1dHZcTHzV6zTnZPVdT9ft0cdD10gUAMJsTKcXpZ4dx+sSwdoMTh45eU2y+//WX47kXxLFo6OpuaWktDEcAtMJyv1e7VSeHjl5zdjVljWnoam5vOMIRN0CL1G2H3WGi135/Ml5MNRyHhq4Jej0TRQAtVKfG7inR69qV3/52c4HlcEQaugYwHAHQbs8P+vFS4eXET4peDUPUn4auOQxHALTYoAbLiR8ZvRqGaAQNXVMYjgDohNI77A5Gryk8x90EGrqGSOvrWzGZOKUD6IhSjd3B6LXXm6wt7M05Ng1dk/T7a6VLAGCxSjR2+6LXsWGIZtDQNcjecMRG6ToAWLxpY3f6xDC+t4DBiZXhIP6iL25tCg1d0+QsdgXosOV+L15awKqTQYrN/+O3v1mb2xtQKQ1d0wyH18JwBEDnzXuHXS8mr1T+osyNhq5h0vr6VkS4fgWAiJhPYzeJ/N4r4/FmJS/GQpS/b4RjyefO3YyIUek6AKiX29t349u7O/Fdzsd8hbz52vjXJystirlzQtdUOb8dolcADpguJz65NDjGn85botZm0tA1VLpxYyNErwA8wom9WyeOserkbVFrM4lcGy6/+ea1yPli6ToAqK/vcr4XxT7OJPJ7Px3/+sriqqJKGroWyOfOrUXEP5auA4B6e1xjlyM+fH38xaVCZVEBDV1LaOoAOKytnUn8l+27sTWZRI74+PXxFxdK18RsNHQtkt9880rkfLl0HQA0w+3tnY//w+efXShdB7PT0LVMPnfuUkR8ULoOAGrv7fSf//O10kVQDQ1dC+U33liJfv9mRKyUrgWA2tmMlN7aux+cltDQtdjead3F0NgBEBGR84fxpz9dSeOxPaYto6Frub3TuithYAKgy8aR0ntO5dpLQ9cRe43d+XBiB9AlG5Hzh+nGjbXShTBfGroOym++OYqcL0TE/xaaO4C22YqI9UjpYydy3aGh67i95u5URPzvEXEqIpYLlwTA0W1FSuOYTK7Hn/607hm57tHQ8YC8unoqer2VmExORUr/PiIiUlqOnJcj55VIaaVogQDdshW7U6mbkfP9Ji3n/xoRm9HrbcVgsJHW1zdLFUg9aOg4snz+/ErcvbsSEbtNXs7Le83f7j+7//8BeLStyHkrUtqMiM3I+b/da9p6vc0YDDY1aRyFho652TvtWw6NH9AdT23UYmtrSyRK1TR0FLfvxC9iMlmJaaPX6/37yHm3IdT8AeVMm7Ste83ZNPLctRHD4ZZGjZI0dDTKY5q/2HfyF571A54q581IaSumz6jl/N/u/XWvtxWTyaYmjSbR0NFqDzWA0wGPB08ANYHQZDlvRkTcizl3/9l/jZS29qJODRqtp6GDA/L58yuxvb187/m/yWQa+ca9yd/9p4G7/3xloUVC+9yPNacnZRHTac649/e93mZMJluaM3iQhg4qdKAZnMbCEY9rCHcHRpYjpemzgtBEW/dWauyekkU8viHbbdgGg92/15RBJTR0UDP5/PmViIhHNob3I+OIiOVI6S/3/nrl/gvk+3/t5JCDpvFkROw7DYu4/4D//SZsGllG3G/EpqdjEWGtBtSHhg464l6jGBH3niucun+SeLBpjHiwcZxaiYP2N5L3X+vhf9Z1+xuqqQcbq6kH/737D+3f/zP7F81OG66I2N90RWi8oAs0dEARDzSYj7L/hLJODjRLjyRGBAAAAAAAAAAAAAAAAAAAAAAAAAAAAAAAAAAAAAAAAAAAAAAAAAAAAAAAAAAAAAAAAAAAAAAAAAAAAAAAAAAAAAAAAAAAAAAAAAAAAAAAAAAAAAAAAAAAAAAAAAAAAAAAAAAAAAAAAAAAAAAAAAAAAAAAAAAAAAAAAAAAAAAAAAAAAAAAAAAAAAAAAAAAAAAAAAAAAAAAAAAAAAAAAAAAAAAAAAAAAAAAAAAAAAAAAAAAAAAAAAAAAAAAAAAAAAAAAAAAAAAAAAAAAAAAAAAAAAAAAAAAAAAAAAAAAAAAAAAAAAAAAAAAAAAAAAAAAAAAAAAAAAAAAAAAAAAAAAAAAAAAAAAAAAAAAAAAAAAAAAAAAAAAAAAAAAAAAAAAAAAAAAAAAAAAAAAAAAAAAAAAAAAAAAAAAAAAAAAAAAAAAAAAAAAAAAAAAAAAAAAAAAAAAAAAAAAAAAAAAAAAAAAAAAAAAAAAAAAAAAAAAAAAAACA4/r/AQisObD5nwNKAAAAAElFTkSuQmCC;" vertex="1" parent="1">
          <mxGeometry x="-10" y="1042" width="98" height="98" as="geometry" />
        </mxCell>
        <mxCell id="WLh6ZahDHB6mBtM96sUv-27" value="Initial Search" style="rounded=1;whiteSpace=wrap;html=1;" vertex="1" parent="1">
          <mxGeometry x="-80" y="752" width="120" height="60" as="geometry" />
        </mxCell>
        <mxCell id="WLh6ZahDHB6mBtM96sUv-28" value="Refined Searches" style="rounded=1;whiteSpace=wrap;html=1;" vertex="1" parent="1">
          <mxGeometry x="-80" y="832" width="120" height="60" as="geometry" />
        </mxCell>
        <mxCell id="WLh6ZahDHB6mBtM96sUv-29" value="Product Listings" style="rounded=1;whiteSpace=wrap;html=1;" vertex="1" parent="1">
          <mxGeometry x="-80" y="912" width="120" height="60" as="geometry" />
        </mxCell>
        <mxCell id="WLh6ZahDHB6mBtM96sUv-31" value="User Management" style="rounded=1;whiteSpace=wrap;html=1;" vertex="1" parent="1">
          <mxGeometry x="-80" y="992" width="120" height="60" as="geometry" />
        </mxCell>
        <mxCell id="WLh6ZahDHB6mBtM96sUv-33" value="" style="shape=image;verticalLabelPosition=bottom;labelBackgroundColor=default;verticalAlign=top;aspect=fixed;imageAspect=0;image=data:image/svg+xml,PHN2ZyB4bWxucz0iaHR0cDovL3d3dy53My5vcmcvMjAwMC9zdmciIHZpZXdCb3g9IjAgMCAxNTQgMTU0IiB3aWR0aD0iMjUwMCIgaGVpZ2h0PSIyNTAwIiBmaWxsPSJub25lIj48Y2lyY2xlIHI9Ijc3IiBmaWxsPSIjMDU5OThiIiBjeT0iNzciIGN4PSI3NyIvPjxwYXRoIGZpbGw9IiNmZmYiIGQ9Ik04MS4zNzUgMTguNjY3bC0zOC43NSA3MEg3Ny41bC0zLjg3NSA0Ni42NjYgMzguNzUtNzBINzcuNXoiLz48L3N2Zz4=;" vertex="1" parent="1">
          <mxGeometry x="586" y="1052" width="64" height="64" as="geometry" />
        </mxCell>
        <mxCell id="WLh6ZahDHB6mBtM96sUv-39" style="edgeStyle=orthogonalEdgeStyle;rounded=1;orthogonalLoop=1;jettySize=auto;html=1;entryX=0;entryY=0.5;entryDx=0;entryDy=0;" edge="1" parent="1" source="WLh6ZahDHB6mBtM96sUv-34" target="WLh6ZahDHB6mBtM96sUv-35">
          <mxGeometry relative="1" as="geometry" />
        </mxCell>
        <mxCell id="WLh6ZahDHB6mBtM96sUv-41" style="edgeStyle=orthogonalEdgeStyle;rounded=1;orthogonalLoop=1;jettySize=auto;html=1;entryX=0;entryY=0.5;entryDx=0;entryDy=0;" edge="1" parent="1" source="WLh6ZahDHB6mBtM96sUv-34" target="WLh6ZahDHB6mBtM96sUv-38">
          <mxGeometry relative="1" as="geometry" />
        </mxCell>
        <mxCell id="WLh6ZahDHB6mBtM96sUv-34" value="Autonomous Agent" style="ellipse;whiteSpace=wrap;html=1;" vertex="1" parent="1">
          <mxGeometry x="259" y="859" width="120" height="80" as="geometry" />
        </mxCell>
        <mxCell id="WLh6ZahDHB6mBtM96sUv-35" value="Vector Search" style="ellipse;whiteSpace=wrap;html=1;" vertex="1" parent="1">
          <mxGeometry x="479" y="739" width="80" height="80" as="geometry" />
        </mxCell>
        <mxCell id="WLh6ZahDHB6mBtM96sUv-37" value="Refine User&lt;br&gt;Searches" style="ellipse;whiteSpace=wrap;html=1;" vertex="1" parent="1">
          <mxGeometry x="479" y="859" width="80" height="80" as="geometry" />
        </mxCell>
        <mxCell id="WLh6ZahDHB6mBtM96sUv-38" value="Product Lookup" style="ellipse;whiteSpace=wrap;html=1;" vertex="1" parent="1">
          <mxGeometry x="479" y="979" width="80" height="80" as="geometry" />
        </mxCell>
        <mxCell id="WLh6ZahDHB6mBtM96sUv-46" value="User Interface&lt;br&gt;(Streamlit App)" style="text;html=1;align=center;verticalAlign=middle;resizable=0;points=[];autosize=1;strokeColor=none;fillColor=none;" vertex="1" parent="1">
          <mxGeometry x="-90" y="1115" width="100" height="40" as="geometry" />
        </mxCell>
        <mxCell id="WLh6ZahDHB6mBtM96sUv-47" value="Backend Wrapper for Staeful Agent&lt;br&gt;(FastAPI Service)" style="text;html=1;align=center;verticalAlign=middle;resizable=0;points=[];autosize=1;strokeColor=none;fillColor=none;" vertex="1" parent="1">
          <mxGeometry x="365" y="1115" width="210" height="40" as="geometry" />
        </mxCell>
        <mxCell id="WLh6ZahDHB6mBtM96sUv-48" value="Media&lt;br&gt;(Links to Product Images)" style="text;html=1;align=center;verticalAlign=middle;resizable=0;points=[];autosize=1;strokeColor=none;fillColor=none;" vertex="1" parent="1">
          <mxGeometry x="80" y="660" width="160" height="40" as="geometry" />
        </mxCell>
        <mxCell id="WLh6ZahDHB6mBtM96sUv-49" value="Embeddings" style="text;html=1;align=center;verticalAlign=middle;resizable=0;points=[];autosize=1;strokeColor=none;fillColor=none;" vertex="1" parent="1">
          <mxGeometry x="410" y="650" width="90" height="30" as="geometry" />
        </mxCell>
        <mxCell id="WLh6ZahDHB6mBtM96sUv-51" value="" style="image;aspect=fixed;html=1;points=[];align=center;fontSize=12;image=img/lib/azure2/databases/Azure_Database_PostgreSQL_Server.svg;" vertex="1" parent="1">
          <mxGeometry x="745" y="832" width="93" height="124" as="geometry" />
        </mxCell>
        <mxCell id="WLh6ZahDHB6mBtM96sUv-54" value="User Management &amp;amp; Operational Log&lt;br&gt;(Postgres Database)" style="text;html=1;align=center;verticalAlign=middle;resizable=0;points=[];autosize=1;strokeColor=none;fillColor=none;" vertex="1" parent="1">
          <mxGeometry x="675" y="967" width="220" height="40" as="geometry" />
        </mxCell>
      </root>
    </mxGraphModel>
  </diagram>
</mxfile>
